<svg width="216" height="22" viewBox="0 0 216 22" fill="none" xmlns="http://www.w3.org/2000/svg">
<path d="M9.03894 1.24907L1.40545 22.0001H0L7.96419 0.284546H9.36963L17.2787 7.0362L25.1878 0.284546H26.5932L34.5574 22.0001H33.152L25.5185 1.24907L17.2787 8.44164L9.03894 1.24907Z" fill="white"/>
<path d="M59.6793 22.0001C55.564 22.0001 51.9172 21.2284 48.7389 19.6852C44.7155 17.7194 42.7037 14.8902 42.7037 11.1974C42.7037 7.65165 44.743 4.85913 48.8216 2.81986C52.1285 1.14802 55.7477 0.312105 59.6793 0.312105C63.6109 0.312105 67.2301 1.14802 70.5371 2.81986C74.6156 4.85913 76.6549 7.65165 76.6549 11.1974C76.6549 14.8902 74.6432 17.7194 70.6197 19.6852C67.4414 21.2284 63.7946 22.0001 59.6793 22.0001ZM59.6793 1.44197C56.207 1.44197 52.9277 2.2044 49.8412 3.72927C46.0566 5.60319 44.1643 8.09258 44.1643 11.1974C44.1643 14.3574 46.0474 16.8559 49.8136 18.6931C52.8266 20.1445 56.1152 20.8702 59.6793 20.8702C63.2435 20.8702 66.532 20.1445 69.545 18.6931C73.3112 16.8559 75.1943 14.3574 75.1943 11.1974C75.1943 8.09258 73.302 5.60319 69.5174 3.72927C66.431 2.2044 63.1516 1.44197 59.6793 1.44197Z" fill="white"/>
<path d="M84.8563 20.5946H91.4702C94.4281 20.5762 97.2481 18.8125 99.9304 15.3035C102.19 12.0517 104.441 8.79989 106.682 5.54808C109.511 2.05743 112.57 0.312105 115.859 0.312105H122.473V1.71755H115.859C112.919 1.71755 110.136 3.47206 107.509 6.98108C105.286 10.2329 103.072 13.4847 100.867 16.7365C98.0381 20.2455 94.9057 22.0001 91.4702 22.0001H84.8563V20.5946Z" fill="white"/>
<path d="M143.881 7.0362H151.515L147.684 2.2687L143.881 7.0362ZM142.751 8.44164L131.839 22.0001H129.965L147.684 0.312105L164.935 22.0001H163.53L152.645 8.44164H142.751Z" fill="white"/>
<path d="M172.861 0.312105H174.267V22.0001H172.861V0.312105Z" fill="white"/>
<path d="M199.493 1.44197V0.312105C203.296 0.312105 206.594 0.927561 209.386 2.15847C211.517 3.09544 213.235 4.30798 214.539 5.7961C215.513 6.93515 216 7.817 216 8.44164H214.595C214.595 7.89049 214.043 7.1005 212.941 6.07167C211.6 4.80402 209.928 3.7752 207.926 2.98521C205.372 1.95638 202.561 1.44197 199.493 1.44197ZM214.595 13.9532H216C216 14.5778 215.513 15.4505 214.539 16.5712C213.253 18.0593 211.545 19.2626 209.414 20.1812C206.603 21.3938 203.296 22.0001 199.493 22.0001V20.8702C202.543 20.8702 205.344 20.3558 207.898 19.327C209.901 18.537 211.572 17.5173 212.914 16.268C214.034 15.2392 214.595 14.4676 214.595 13.9532ZM199.493 0.312105V1.44197C196.002 1.44197 192.714 2.21359 189.627 3.75682C185.861 5.63075 183.978 8.11095 183.978 11.1974C183.978 14.3757 185.87 16.8743 189.655 18.6931C192.668 20.1445 195.947 20.8702 199.493 20.8702V22.0001C195.414 22.0001 191.795 21.2376 188.635 19.7128C184.557 17.747 182.517 14.9085 182.517 11.1974C182.517 7.70677 184.52 4.93262 188.525 2.87498C191.832 1.1664 195.488 0.312105 199.493 0.312105Z" fill="white"/>
</svg>
