<svg width="24" height="24" viewBox="0 0 24 24" fill="none" xmlns="http://www.w3.org/2000/svg">
    <path d="M12 24c6.627 0 12-5.373 12-12S18.627 0 12 0 0 5.373 0 12s5.373 12 12 12z" fill="#8247E5"/>
    <path d="M15.972 9.433a1.016 1.016 0 0 0-.979 0l-2.245 1.284-1.525.837-2.245 1.284a1.016 1.016 0 0 1-.979 0l-1.785-1.005c-.287-.168-.489-.475-.489-.81v-1.98a.9.9 0 0 1 .49-.81l1.755-.977c.288-.167.662-.167.979 0l1.755.977c.288.167.49.474.49.81v1.283l1.525-.865V8.177a.9.9 0 0 0-.489-.81L8.978 5.527a1.016 1.016 0 0 0-.979 0l-3.31 1.842a.9.9 0 0 0-.49.81v3.71a.9.9 0 0 0 .49.81l3.31 1.842c.288.167.662.167.979 0l2.245-1.256 1.525-.865 2.245-1.256c.288-.167.662-.167.979 0l1.755.977c.288.167.49.474.49.81v1.98a.9.9 0 0 1-.49.81l-1.755 1.005a1.016 1.016 0 0 1-.979 0l-1.756-.977c-.287-.168-.489-.475-.489-.81v-1.283l-1.525.865v1.284a.9.9 0 0 0 .489.809l3.31 1.842c.288.167.662.167.978 0l3.31-1.842c.288-.168.49-.474.49-.81v-3.711a.9.9 0 0 0-.49-.81l-3.338-1.869z" fill="#fff"/>
</svg>
