<svg width="24" height="24" viewBox="0 0 24 24" fill="none" xmlns="http://www.w3.org/2000/svg">
    <path d="M6 8H4v2h2V8zM6 12H4v2h2v-2zM6 10H4v2h2v-2zM6 14H4v2h2v-2zM14 4h-2v2h2V4zM14 18h-2v2h2v-2zM16 4h-2v2h2V4z" fill="#FED955"/>
    <path d="M18 4h-2v2h2V4zM8 4H6v2h2V4zM20 16h-2v2h2v-2zM6 16H4v2h2v-2zM16 2h-2v2h2V2z" fill="#9695F8"/>
    <path d="M16 0h-2v2h2V0zM16 22h-2v2h2v-2z" fill="#5552FD"/>
    <path d="M16 20h-2v2h2v-2zM12 2h-2v2h2V2z" fill="#9695F8"/>
    <path d="M12 0h-2v2h2V0zM12 22h-2v2h2v-2z" fill="#5552FD"/>
    <path d="M12 20h-2v2h2v-2zM14 2h-2v2h2V2z" fill="#9695F8"/>
    <path d="M14 0h-2v2h2V0zM14 22h-2v2h2v-2z" fill="#5552FD"/>
    <path d="M14 20h-2v2h2v-2zM10 2H8v2h2V2z" fill="#9695F8"/>
    <path d="M10 0H8v2h2V0zM10 22H8v2h2v-2z" fill="#5552FD"/>
    <path d="M10 20H8v2h2v-2zM20 6h-2v2h2V6zM6 6H4v2h2V6zM18 18h-2v2h2v-2zM8 18H6v2h2v-2zM22 8h-2v2h2V8zM4 8H2v2h2V8z" fill="#9695F8"/>
    <path d="M2 8H0v2h2V8zM4 6H2v2h2V6zM22 6h-2v2h2V6zM18 20h-2v2h2v-2zM4 16H2v2h2v-2zM6 4H4v2h2V4zM20 4h-2v2h2V4zM20 18h-2v2h2v-2zM6 18H4v2h2v-2zM8 2H6v2h2V2zM18 2h-2v2h2V2zM22 16h-2v2h2v-2zM8 20H6v2h2v-2zM24 8h-2v2h2V8z" fill="#5552FD"/>
    <path d="M22 10h-2v2h2v-2zM4 10H2v2h2v-2z" fill="#9695F8"/>
    <path d="M2 10H0v2h2v-2zM24 10h-2v2h2v-2z" fill="#5552FD"/>
    <path d="M22 12h-2v2h2v-2zM4 12H2v2h2v-2z" fill="#9695F8"/>
    <path d="M2 12H0v2h2v-2zM24 12h-2v2h2v-2z" fill="#5552FD"/>
    <path d="M22 14h-2v2h2v-2zM4 14H2v2h2v-2z" fill="#9695F8"/>
    <path d="M2 14H0v2h2v-2zM24 14h-2v2h2v-2z" fill="#5552FD"/>
    <path d="M16 18h-2v2h2v-2zM14 8h-2v2h2V8zM14 12h-2v2h2v-2zM14 14h-2v2h2v-2zM14 6h-2v2h2V6zM14 16h-2v2h2v-2zM10 12H8v2h2v-2zM10 10H8v2h2v-2zM10 14H8v2h2v-2zM10 6H8v2h2V6zM10 16H8v2h2v-2zM16 12h-2v2h2v-2zM16 10h-2v2h2v-2zM16 14h-2v2h2v-2zM16 6h-2v2h2V6zM16 16h-2v2h2v-2zM12 4h-2v2h2V4zM12 18h-2v2h2v-2zM10 4H8v2h2V4zM10 18H8v2h2v-2zM12 8h-2v2h2V8zM12 12h-2v2h2v-2z" fill="#FED955"/>
    <path d="M10 8H8v2h2V8zM14 10h-2v2h2v-2zM18 8h-2v2h2V8zM18 12h-2v2h2v-2zM18 10h-2v2h2v-2zM18 14h-2v2h2v-2zM18 6h-2v2h2V6zM18 16h-2v2h2v-2zM8 8H6v2h2V8zM8 12H6v2h2v-2zM8 10H6v2h2v-2zM8 14H6v2h2v-2zM8 6H6v2h2V6zM8 16H6v2h2v-2zM16 8h-2v2h2V8zM12 10h-2v2h2v-2z" fill="#5552FD"/>
    <path d="M12 14h-2v2h2v-2zM12 6h-2v2h2V6zM12 16h-2v2h2v-2zM20 8h-2v2h2V8zM20 12h-2v2h2v-2zM20 10h-2v2h2v-2zM20 14h-2v2h2v-2z" fill="#FED955"/>
</svg>
