<svg width="24" height="24" viewBox="0 0 24 24" fill="none" xmlns="http://www.w3.org/2000/svg">
<path d="M12 23.75C14.3239 23.75 16.5957 23.0609 18.528 21.7698C20.4602 20.4787 21.9663 18.6436 22.8556 16.4965C23.7449 14.3495 23.9776 11.987 23.5242 9.7077C23.0709 7.42842 21.9518 5.33478 20.3085 3.6915C18.6652 2.04823 16.5716 0.929155 14.2923 0.475778C12.013 0.0224024 9.6505 0.25509 7.50348 1.14442C5.35643 2.03375 3.52135 3.53978 2.23023 5.47205C0.939125 7.40433 0.25 9.67607 0.25 12C0.25 15.1163 1.48794 18.1049 3.6915 20.3085C5.89505 22.5121 8.8837 23.75 12 23.75Z" fill="#2775C9"/>
<path d="M15.2355 13.8672C15.2355 12.1537 14.1927 11.5759 12.1756 11.2993C10.6848 11.0839 10.3984 10.7339 10.3984 10.0387C10.3984 9.34343 10.9027 8.91015 11.8671 8.91015C12.7459 8.91015 13.2527 9.21615 13.4607 9.9236C13.4828 10.001 13.5293 10.0693 13.5932 10.1182C13.6572 10.1672 13.7352 10.1942 13.8157 10.1953H14.5868C14.6371 10.1964 14.6871 10.1863 14.7331 10.1658C14.7792 10.1454 14.8201 10.115 14.8531 10.0769C14.886 10.0388 14.9102 9.99388 14.9238 9.9454C14.9374 9.8969 14.9402 9.84598 14.9319 9.7963C14.6871 8.6776 13.9332 8.00443 12.7508 7.7939V6.614C12.7508 6.51663 12.7121 6.42323 12.6433 6.35438C12.5744 6.2855 12.481 6.24683 12.3836 6.24683H11.6493C11.5519 6.24683 11.4585 6.2855 11.3896 6.35438C11.3208 6.42323 11.2821 6.51663 11.2821 6.614V7.75228C9.81333 7.9579 8.88556 8.92728 8.88556 10.1708C8.88556 11.7791 9.86473 12.4033 11.9112 12.68C13.3041 12.9076 13.7006 13.2087 13.7006 13.9994C13.7006 14.7901 13.0274 15.3213 12.0777 15.3213C10.7974 15.3213 10.3641 14.7607 10.2197 14.0337C10.2029 13.9502 10.158 13.8751 10.0925 13.8207C10.0271 13.7664 9.94493 13.7361 9.85983 13.735H9.02266C8.97271 13.7347 8.92328 13.7453 8.87786 13.7661C8.83243 13.7869 8.79208 13.8173 8.75968 13.8553C8.72726 13.8934 8.70356 13.938 8.69021 13.9861C8.67686 14.0343 8.67418 14.0847 8.68238 14.134C8.89536 15.358 9.68113 16.2539 11.2821 16.4693V17.6296C11.2821 17.727 11.3208 17.8204 11.3896 17.8893C11.4585 17.9581 11.5519 17.9968 11.6493 17.9968H12.3836C12.481 17.9968 12.5744 17.9581 12.6433 17.8893C12.7121 17.8204 12.7508 17.727 12.7508 17.6296V16.4693C14.2685 16.2294 15.2355 15.1817 15.2355 13.8672Z" fill="white"/>
<path d="M9.49773 19.0203C8.0833 18.5038 6.86185 17.565 5.99883 16.3311C5.1358 15.0972 4.67293 13.6279 4.67293 12.1221C4.67293 10.6163 5.1358 9.14697 5.99883 7.91307C6.86185 6.67915 8.0833 5.74037 9.49773 5.22387C9.5884 5.18407 9.66608 5.1196 9.72193 5.0378C9.77775 4.956 9.80948 4.86017 9.8135 4.76122V4.0758C9.81938 4.0151 9.8092 3.95392 9.78395 3.89842C9.7587 3.84292 9.7193 3.79502 9.6697 3.75955C9.6201 3.72407 9.56203 3.7023 9.50133 3.69635C9.44065 3.69042 9.37945 3.70057 9.32393 3.72575C7.54273 4.29345 5.98823 5.4129 4.88513 6.92225C3.78203 8.4316 3.1875 10.2526 3.1875 12.1221C3.1875 13.9916 3.78203 15.8126 4.88513 17.322C5.98823 18.8313 7.54273 19.9507 9.32393 20.5184C9.37945 20.5436 9.44065 20.5538 9.50133 20.5478C9.56203 20.5419 9.6201 20.5201 9.6697 20.4847C9.7193 20.4492 9.7587 20.4013 9.78395 20.3458C9.8092 20.2903 9.81938 20.2291 9.8135 20.1684V19.483C9.80948 19.384 9.77775 19.2882 9.72193 19.2064C9.66608 19.1246 9.5884 19.0601 9.49773 19.0203Z" fill="white"/>
<path d="M14.7099 3.72575C14.6544 3.70057 14.5932 3.69042 14.5325 3.69635C14.4718 3.7023 14.4138 3.72407 14.3642 3.75955C14.3146 3.79502 14.2752 3.84292 14.2499 3.89842C14.2247 3.95392 14.2145 4.0151 14.2204 4.0758V4.76122C14.2244 4.86017 14.2561 4.956 14.3119 5.0378C14.3678 5.1196 14.4455 5.18407 14.5361 5.22387C15.9506 5.74037 17.172 6.67915 18.0351 7.91307C18.8981 9.14697 19.3609 10.6163 19.3609 12.1221C19.3609 13.6279 18.8981 15.0972 18.0351 16.3311C17.172 17.565 15.9506 18.5038 14.5361 19.0203C14.4425 19.0559 14.362 19.1193 14.3055 19.202C14.2491 19.2848 14.2193 19.3828 14.2204 19.483V20.1684C14.2145 20.2291 14.2247 20.2903 14.2499 20.3458C14.2752 20.4013 14.3146 20.4492 14.3642 20.4847C14.4138 20.5201 14.4718 20.5419 14.5325 20.5478C14.5932 20.5538 14.6544 20.5436 14.7099 20.5184C16.4911 19.9507 18.0457 18.8313 19.1488 17.322C20.2518 15.8126 20.8464 13.9916 20.8464 12.1221C20.8464 10.2526 20.2518 8.4316 19.1488 6.92225C18.0457 5.4129 16.4911 4.29345 14.7099 3.72575Z" fill="white"/>
</svg>
