<svg width="24" height="24" viewBox="0 0 24 24" fill="none" xmlns="http://www.w3.org/2000/svg">
<path d="M12.6002 18.06C12.2402 18.34 11.7302 18.34 11.3702 18.06L5.22018 13.28C4.86018 13 4.36018 13 4.00018 13.28C3.49018 13.68 3.49018 14.45 4.00018 14.85L10.7602 20.11C11.4802 20.67 12.4902 20.67 13.2202 20.11L19.9802 14.85C20.4902 14.45 20.4902 13.68 19.9802 13.28L19.9702 13.27C19.6102 12.99 19.1102 12.99 18.7502 13.27L12.6002 18.06ZM13.2302 15.04L19.9902 9.78002C20.5002 9.38002 20.5002 8.60002 19.9902 8.20002L13.2302 2.94002C12.5102 2.38002 11.5002 2.38002 10.7702 2.94002L4.01018 8.21002C3.50018 8.61002 3.50018 9.39002 4.01018 9.79002L10.7702 15.05C11.4902 15.61 12.5102 15.61 13.2302 15.04Z" fill="white"/>
</svg>
