<svg width="48" height="48" viewBox="0 0 48 48" fill="none" xmlns="http://www.w3.org/2000/svg">
<path d="M43.9428 3.46655L26.658 16.3042L29.8543 8.73017L43.9428 3.46655Z" fill="#E2761B" stroke="#E2761B" stroke-width="0.101334" stroke-linecap="round" stroke-linejoin="round"/>
<path d="M4.04004 3.46655L21.1858 16.4258L18.1458 8.73017L4.04004 3.46655Z" fill="#E4761B" stroke="#E4761B" stroke-width="0.101334" stroke-linecap="round" stroke-linejoin="round"/>
<path d="M37.7236 33.2241L33.1201 40.277L42.97 42.9869L45.8014 33.3804L37.7236 33.2241Z" fill="#E4761B" stroke="#E4761B" stroke-width="0.101334" stroke-linecap="round" stroke-linejoin="round"/>
<path d="M2.21582 33.3804L5.03002 42.9869L14.8797 40.277L10.2763 33.2241L2.21582 33.3804Z" fill="#E4761B" stroke="#E4761B" stroke-width="0.101334" stroke-linecap="round" stroke-linejoin="round"/>
<path d="M14.3236 21.3075L11.5789 25.4594L21.3591 25.8936L21.0116 15.3838L14.3236 21.3075Z" fill="#E4761B" stroke="#E4761B" stroke-width="0.101334" stroke-linecap="round" stroke-linejoin="round"/>
<path d="M33.6586 21.3073L26.8838 15.262L26.658 25.8934L36.4207 25.4591L33.6586 21.3073Z" fill="#E4761B" stroke="#E4761B" stroke-width="0.101334" stroke-linecap="round" stroke-linejoin="round"/>
<path d="M14.8799 40.2772L20.7515 37.411L15.679 33.4502L14.8799 40.2772Z" fill="#E4761B" stroke="#E4761B" stroke-width="0.101334" stroke-linecap="round" stroke-linejoin="round"/>
<path d="M27.2312 37.411L33.1201 40.2772L32.3037 33.4502L27.2312 37.411Z" fill="#E4761B" stroke="#E4761B" stroke-width="0.101334" stroke-linecap="round" stroke-linejoin="round"/>
<path d="M33.1201 40.277L27.2312 37.4108L27.7002 41.2499L27.6481 42.8654L33.1201 40.277Z" fill="#D7C1B3" stroke="#D7C1B3" stroke-width="0.101334" stroke-linecap="round" stroke-linejoin="round"/>
<path d="M14.8799 40.277L20.352 42.8654L20.3172 41.2499L20.7515 37.4108L14.8799 40.277Z" fill="#D7C1B3" stroke="#D7C1B3" stroke-width="0.101334" stroke-linecap="round" stroke-linejoin="round"/>
<path d="M20.4386 30.9139L15.5398 29.472L18.9967 27.8912L20.4386 30.9139Z" fill="#233447" stroke="#233447" stroke-width="0.101334" stroke-linecap="round" stroke-linejoin="round"/>
<path d="M27.5439 30.9139L28.9858 27.8912L32.4602 29.472L27.5439 30.9139Z" fill="#233447" stroke="#233447" stroke-width="0.101334" stroke-linecap="round" stroke-linejoin="round"/>
<path d="M14.8801 40.277L15.7139 33.2241L10.2766 33.3804L14.8801 40.277Z" fill="#CD6116" stroke="#CD6116" stroke-width="0.101334" stroke-linecap="round" stroke-linejoin="round"/>
<path d="M32.2861 33.2241L33.1199 40.277L37.7234 33.3804L32.2861 33.2241Z" fill="#CD6116" stroke="#CD6116" stroke-width="0.101334" stroke-linecap="round" stroke-linejoin="round"/>
<path d="M36.4207 25.4591L26.658 25.8935L27.5613 30.9139L29.0032 27.8912L32.4774 29.472L36.4207 25.4591Z" fill="#CD6116" stroke="#CD6116" stroke-width="0.101334" stroke-linecap="round" stroke-linejoin="round"/>
<path d="M15.5389 29.472L19.0132 27.8912L20.4376 30.9139L21.3583 25.8935L11.5781 25.4591L15.5389 29.472Z" fill="#CD6116" stroke="#CD6116" stroke-width="0.101334" stroke-linecap="round" stroke-linejoin="round"/>
<path d="M11.5789 25.4591L15.6786 33.4502L15.5396 29.472L11.5789 25.4591Z" fill="#E4751F" stroke="#E4751F" stroke-width="0.101334" stroke-linecap="round" stroke-linejoin="round"/>
<path d="M32.4774 29.472L32.3037 33.4502L36.4208 25.4591L32.4774 29.472Z" fill="#E4751F" stroke="#E4751F" stroke-width="0.101334" stroke-linecap="round" stroke-linejoin="round"/>
<path d="M21.3599 25.8936L20.4392 30.9139L21.5857 36.8376L21.8463 29.0378L21.3599 25.8936Z" fill="#E4751F" stroke="#E4751F" stroke-width="0.101334" stroke-linecap="round" stroke-linejoin="round"/>
<path d="M26.6575 25.8936L26.1885 29.0204L26.3969 36.8376L27.5608 30.9139L26.6575 25.8936Z" fill="#E4751F" stroke="#E4751F" stroke-width="0.101334" stroke-linecap="round" stroke-linejoin="round"/>
<path d="M27.5611 30.9139L26.3972 36.8376L27.2312 37.4109L32.3037 33.4502L32.4774 29.472L27.5611 30.9139Z" fill="#F6851B" stroke="#F6851B" stroke-width="0.101334" stroke-linecap="round" stroke-linejoin="round"/>
<path d="M15.5398 29.472L15.6788 33.4502L20.7513 37.4109L21.5851 36.8376L20.4386 30.9139L15.5398 29.472Z" fill="#F6851B" stroke="#F6851B" stroke-width="0.101334" stroke-linecap="round" stroke-linejoin="round"/>
<path d="M27.648 42.8656L27.7002 41.2501L27.2659 40.8679H20.7167L20.3172 41.2501L20.352 42.8656L14.8799 40.2772L16.7907 41.8406L20.6646 44.5333H27.3179L31.2092 41.8406L33.1201 40.2772L27.648 42.8656Z" fill="#C0AD9E" stroke="#C0AD9E" stroke-width="0.101334" stroke-linecap="round" stroke-linejoin="round"/>
<path d="M27.2313 37.4111L26.3975 36.8378H21.5856L20.7517 37.4111L20.3174 41.2502L20.7169 40.8681H27.2661L27.7003 41.2502L27.2313 37.4111Z" fill="#161616" stroke="#161616" stroke-width="0.101334" stroke-linecap="round" stroke-linejoin="round"/>
<path d="M44.6723 17.1381L46.1489 10.0504L43.9427 3.46655L27.2312 15.8699L33.6587 21.3073L42.7441 23.9651L44.7592 21.6199L43.8907 20.9945L45.2804 19.7265L44.2033 18.8925L45.593 17.8329L44.6723 17.1381Z" fill="#763D16" stroke="#763D16" stroke-width="0.101334" stroke-linecap="round" stroke-linejoin="round"/>
<path d="M1.85156 10.0504L3.32815 17.1381L2.39008 17.8329L3.77981 18.8925L2.72014 19.7265L4.10988 20.9945L3.2413 21.6199L5.23903 23.9651L14.3244 21.3073L20.7519 15.8699L4.04039 3.46655L1.85156 10.0504Z" fill="#763D16" stroke="#763D16" stroke-width="0.101334" stroke-linecap="round" stroke-linejoin="round"/>
<path d="M42.7441 23.9653L33.6587 21.3075L36.4208 25.4592L32.3037 33.4502L37.7236 33.3807H45.8014L42.7441 23.9653Z" fill="#F6851B" stroke="#F6851B" stroke-width="0.101334" stroke-linecap="round" stroke-linejoin="round"/>
<path d="M14.3239 21.3075L5.23848 23.9653L2.21582 33.3807H10.2763L15.6788 33.4502L11.5791 25.4592L14.3239 21.3075Z" fill="#F6851B" stroke="#F6851B" stroke-width="0.101334" stroke-linecap="round" stroke-linejoin="round"/>
<path d="M26.6579 25.8934L27.2312 15.87L29.8716 8.73022H18.1458L20.7515 15.87L21.3595 25.8934L21.5679 29.055L21.5853 36.8375H26.3973L26.432 29.055L26.6579 25.8934Z" fill="#F6851B" stroke="#F6851B" stroke-width="0.101334" stroke-linecap="round" stroke-linejoin="round"/>
</svg>
