<svg width="14" height="14" viewBox="0 0 14 14" fill="none" xmlns="http://www.w3.org/2000/svg">
<g clip-path="url(#clip0)">
<path d="M8.37923 0.399902V1.73324H10.7726L4.21923 8.28657L5.15923 9.22657L11.7126 2.67324V5.06657H13.0459V0.399902H8.37923ZM11.7126 11.0666H2.37923V1.73324H7.0459V0.399902H2.37923C1.63923 0.399902 1.0459 0.999902 1.0459 1.73324V11.0666C1.0459 11.4202 1.18637 11.7593 1.43642 12.0094C1.68647 12.2594 2.02561 12.3999 2.37923 12.3999H11.7126C12.0662 12.3999 12.4053 12.2594 12.6554 12.0094C12.9054 11.7593 13.0459 11.4202 13.0459 11.0666V6.3999H11.7126V11.0666Z" fill="white" fill-opacity="0.5"/>
</g>
<defs>
<clipPath id="clip0">
<rect width="13.9543" height="12.8" fill="white" transform="translate(0.0458984 0.399902)"/>
</clipPath>
</defs>
</svg>
