<svg width="24" height="24" viewBox="0 0 24 24" fill="none" xmlns="http://www.w3.org/2000/svg">
<path d="M23.5 12C23.5 18.3513 18.3513 23.5 12 23.5C5.64872 23.5 0.5 18.3513 0.5 12C0.5 5.64872 5.64872 0.5 12 0.5C18.3513 0.5 23.5 5.64872 23.5 12Z" fill="#F9FAFB" stroke="#8C8C8C"/>
<path d="M6.75977 12.1556L12.0595 15.2324L12.9434 8.70154L6.75977 12.1556Z" fill="#393939"/>
<path d="M12.0598 3.51831L9.54883 12.3701L17.3588 12.1556L12.0598 3.51831Z" fill="#343434"/>
<path d="M12.0594 3.51831L6.75977 12.1556L12.0594 9.78775V3.51831Z" fill="#8C8C8C"/>
<path d="M12.0595 20.4786L12.1898 16.2899L6.75977 13.1426L12.0595 20.4786Z" fill="#8C8C8C"/>
<path d="M12.0586 16.2186V20.4786L17.3611 13.1426L12.0586 16.2186Z" fill="#3C3C3B"/>
<path d="M12.0586 15.2325L17.3576 12.1557L12.0586 9.78931V15.2325Z" fill="#141414"/>
</svg>
