<svg width="24" height="24" fill="none" xmlns="http://www.w3.org/2000/svg"><ellipse cx="12.008" cy="12.727" rx="10.992" ry="11.273" fill="#418ACA"/><path d="M5.726 7.826c-2.11 1.303-1.986 3.626-1.66 4.625 2.894-2.723 7.115-2.24 8.865-1.658-.454-.791-1.494-1.474-1.957-1.717 6.217-.116 8.509 4.413 8.878 6.691.676 4.18-1.939 6.493-1.939 6.493 2.819-1.734 4.23-4.344 4.704-6.493.08-3.246-2.226-5.716-3.39-6.545 1.237.012 2.577.625 3.093.93-2.406-3.188-6.146-4.14-7.716-4.217 2.179-1.816 2.638-4.703 2.596-5.92-1.543 2.77-3.357 4.17-4.07 4.523-.08-.85-.355-1.226-.483-1.309-.601 1.315-2.747 2.245-3.744 2.546-.383.115-.88.567-.794 1.192.092.68.595.946.907.99-.59.104-.907-.044-.992-.131C6.818 9.004 6.279 8.96 5.867 8.844c-.33-.093-.232-.718-.142-1.018z" fill="#fff"/><path d="M5.64 9.324c-.453-.012-.746.703-.836 1.062.646-.699.884-.485.922-.291.351-.559.09-.747-.086-.771z" fill="#418ACA"/><path d="M4.832 21.367c-3.188-2.56-3.881-6.749-3.83-8.538 1.547 3.884 4.667 5.818 7.007 5.73 2.34-.086 3.815-.872 5.063-2.472.998-1.28.236-2.826-.312-3.447 1.725 1.594 1.314 3.404.936 4.116.34-.093.785-.528.965-.712.01.488-.138.974-.213 1.134.43-.175.893-.722 1.092-.975.326.859-.024 2.43-.27 2.837-1.092 2.284-4.354 3.942-6.637 3.825-1.827-.093-3.295-1.037-3.801-1.498zM19.241 9.222c-1.191-1.024-2.973-1.435-3.716-1.513 1.748 0 3.414.688 4.028 1.033l-.312-.655c.965.442 2.44 1.513 3.078 2.066-.213-.131-1.816-.902-3.078-.931zM12.959 11.738c-3.71-1.629-7.163-.393-8.34.247 2.553-2.05 6.307-1.735 7.758-1.352.442.465.534.936.582 1.105zM13.058 5.73c-.102.676-.629 1.31-.88 1.543C16.344 5.91 17.28 1.857 17.229 0c-.42 1.57-1.376 2.895-1.802 3.36l.752-.204c-.76 1.432-2.397 2.313-3.12 2.575zM5.612 9.556c-.363 0-.7.577-.808.83.238-.862.652-1.115.865-1.062.42.104.217.557.057.77.118-.179.25-.538-.114-.538z" fill="#161F42"/><path d="M9.753 6.59c-.607.342-.496.741-.468.886 1.883.082 2.553-1.265 2.652-1.949-1.248.902-1.333.582-2.184 1.062z" fill="#418ACA"/><path d="M7.413 13.396c-.596.04-1.988-.189-2.794-1.41 1.258-.776 4.68-1.92 8.311-.292.005-.111-.11-.482-.61-1.076l.61.16a3.846 3.846 0 00-.85-.916c.86-.015 3.196.331 4.807 1.832 2.014 1.877 4.456 6.015 1.307 10.277-1.123 1.446-8.105 4.022-13.398-.622.712.608 2.598 1.684 4.815 1.516 2.88-.218 8.34-2.53 6.524-7.767-.142.475-.72 1.6-1.73 2.124.364-1.077.542-3.552-1.83-4.67-2.964-1.396-6.538-.727-5.162.844z" fill="#262F71"/><path d="M13.654 16.814c.84-1.861-.237-3.573-.908-4.174 1.793.884 1.986 2.667 1.872 3.447-.102.198-.709.596-.964.727zM14.42 20.233c1.418-1.455 1.323-3.297 1.106-4 .238-.315.53-.936.638-1.208.837 2.342-.033 4.19-.525 4.815-2.223 2.735-5.446 3.244-7.318 2.996 2.383 0 4.326-.785 6.099-2.603z" fill="#0E1F66"/><path d="M10.987 6.11c-.25.93-1.234 1.308-1.702 1.366 1.83.117 2.539-1.246 2.652-1.963-.113.151-.68.46-.95.596zM17.64 12.67c-1.714-2.27-4.43-2.818-5.574-2.808-.25-.233-.795-.62-1.036-.786 1.783-.228 5.837.362 8.042 4.408 1.943 3.565.91 6.48-.877 8.487 2.227-3.404 1.586-6.466-.556-9.302z" fill="#161F42"/></svg>