<svg width="24" height="24" fill="none" xmlns="http://www.w3.org/2000/svg"><circle cx="12" cy="12" r="12" fill="url(#prefix__paint0_linear_1600_12852)"/><path d="M10.611 7.332c-.17-.024-.178-.032-.097-.04.154-.025.511.008.763.065.585.138 1.113.495 1.674 1.12l.146.171.211-.032c.902-.147 1.828-.033 2.6.325.21.097.543.292.584.34.016.017.04.123.057.228.057.382.032.666-.09.886-.064.121-.064.154-.024.26.033.08.13.138.22.138.194 0 .398-.31.495-.74l.04-.17.074.081c.414.463.739 1.105.788 1.56l.016.121-.073-.105a1.37 1.37 0 00-.39-.414c-.276-.187-.569-.244-1.34-.285-.699-.04-1.097-.097-1.487-.227-.666-.22-1.007-.504-1.795-1.552-.35-.463-.569-.714-.788-.926-.479-.463-.958-.706-1.584-.804z" fill="#FF007A"/><path d="M16.663 8.364c.016-.309.056-.512.146-.699a.561.561 0 01.073-.138c.008 0-.008.057-.033.122-.065.179-.073.43-.032.715.057.365.081.414.47.812.18.187.39.422.472.52l.138.179-.138-.13c-.17-.163-.56-.472-.65-.512-.057-.033-.065-.033-.105.008-.033.032-.041.081-.041.317-.008.365-.057.593-.179.828-.065.122-.073.098-.016-.04.04-.106.049-.155.049-.504 0-.707-.081-.877-.577-1.161a6.064 6.064 0 00-.455-.236 1.806 1.806 0 01-.22-.106c.017-.016.496.122.683.203.284.114.333.122.366.114.024-.024.04-.09.049-.292zM10.944 9.574c-.34-.471-.56-1.202-.512-1.746l.017-.171.081.016c.146.025.398.122.52.195.325.195.471.463.61 1.13.04.194.097.422.12.495.042.122.196.406.326.585.09.13.032.195-.17.178-.31-.032-.724-.317-.992-.682zM16.248 13.107c-1.608-.65-2.177-1.21-2.177-2.16 0-.138.008-.252.008-.252.008 0 .065.049.138.105.325.26.69.374 1.706.52.593.09.934.155 1.243.26.983.325 1.592.991 1.738 1.893.04.26.017.755-.048 1.015-.057.203-.22.577-.26.585-.009 0-.025-.04-.025-.106-.016-.34-.187-.666-.47-.918-.342-.292-.78-.511-1.853-.942zM15.111 13.376a1.928 1.928 0 00-.081-.342l-.04-.121.072.089c.106.122.187.268.26.471.057.154.057.203.057.455 0 .244-.008.3-.057.439a1.47 1.47 0 01-.34.544c-.293.3-.675.463-1.22.536-.097.008-.373.032-.617.049-.609.032-1.015.097-1.38.227-.05.016-.098.032-.106.024-.016-.016.236-.162.439-.26.284-.138.576-.21 1.218-.324.317-.05.642-.114.723-.147.804-.251 1.202-.877 1.072-1.64z" fill="#FF007A"/><path d="M15.851 14.683c-.21-.463-.26-.901-.146-1.316.017-.04.033-.08.049-.08a.35.35 0 01.114.056c.097.065.3.179.82.463.658.357 1.032.634 1.292.95.227.277.365.593.43.983.04.22.016.747-.04.967-.18.69-.585 1.243-1.178 1.56-.09.048-.163.08-.17.08a.648.648 0 01.072-.178c.195-.414.22-.812.073-1.26-.09-.275-.276-.608-.65-1.169-.446-.65-.552-.82-.666-1.056zM9.799 17.169c.6-.504 1.34-.861 2.022-.975.293-.049.78-.032 1.048.04.43.114.82.358 1.023.659.195.292.285.544.374 1.104.033.22.073.447.081.496.065.292.195.52.358.642.251.186.69.194 1.12.032.074-.024.139-.049.139-.04.016.016-.203.162-.35.235a1.15 1.15 0 01-.585.138c-.39 0-.722-.203-.99-.61a4.57 4.57 0 01-.268-.535c-.285-.658-.431-.853-.764-1.072-.292-.187-.666-.228-.95-.09-.374.179-.472.658-.212.95.106.122.301.22.463.244.301.04.56-.195.56-.495 0-.195-.072-.309-.267-.398-.26-.114-.544.016-.536.268 0 .105.049.17.154.22.065.032.065.032.016.024-.235-.05-.292-.342-.105-.529.227-.227.706-.13.869.187.065.13.073.39.016.553-.138.357-.528.544-.926.438-.268-.073-.382-.146-.707-.479-.568-.585-.787-.698-1.6-.82l-.154-.025.17-.162z" fill="#FF007A"/><path fill-rule="evenodd" clip-rule="evenodd" d="M5.527 4.1a866.114 866.114 0 014.954 6.067c.122.162.074.317-.13.43-.113.065-.349.13-.463.13a.586.586 0 01-.39-.17c-.073-.073-.39-.536-1.104-1.65-.544-.852-1.007-1.559-1.015-1.567-.033-.016-.033-.016.958 1.755.625 1.113.829 1.51.829 1.56 0 .105-.033.162-.163.308-.22.244-.317.52-.39 1.097-.081.641-.3 1.096-.926 1.868-.365.455-.422.536-.512.723-.113.227-.146.357-.162.65-.016.308.016.503.106.795.08.26.17.431.39.764.186.293.3.512.3.593 0 .065.016.065.309 0 .698-.162 1.275-.439 1.592-.78.195-.211.243-.325.243-.617 0-.187-.008-.228-.056-.341-.082-.179-.236-.325-.569-.553-.439-.3-.625-.544-.674-.869-.04-.276.008-.463.252-.974.251-.528.316-.748.357-1.284.024-.341.065-.48.162-.585.106-.113.195-.154.447-.186.414-.057.683-.163.894-.366a.764.764 0 00.276-.593l.008-.187-.106-.114c-.381-.438-5.67-6.254-5.694-6.254-.008 0 .122.154.277.35zM8.02 15.65a.335.335 0 00-.105-.447c-.138-.09-.35-.049-.35.073 0 .033.017.065.065.081.073.041.082.082.025.17-.057.09-.057.171.016.228.114.09.268.041.35-.105zM11.31 11.377c-.195.057-.382.268-.439.48-.032.13-.016.365.04.438.09.114.171.146.399.146.446 0 .828-.195.869-.43.04-.195-.13-.463-.366-.585a.826.826 0 00-.503-.049zm.52.406c.065-.097.04-.203-.082-.276-.219-.138-.552-.024-.552.187 0 .106.17.22.333.22.106 0 .252-.066.3-.13z" fill="#FF007A"/><defs><linearGradient id="prefix__paint0_linear_1600_12852" x1="22.125" y1="18" x2="3" y2="2.625" gradientUnits="userSpaceOnUse"><stop stop-color="#FFCAE2"/><stop offset="1" stop-color="#FDE9F2"/></linearGradient></defs></svg>