<svg viewBox="0 0 24 24" xmlns="http://www.w3.org/2000/svg">
<path d="M9.86401 10.0684C9.18002 10.0684 8.64001 10.6684 8.64001 11.4004C8.64001 12.1324 9.19202 12.7324 9.86401 12.7324C10.548 12.7324 11.088 12.1324 11.088 11.4004C11.1 10.6684 10.548 10.0684 9.86401 10.0684ZM14.244 10.0684C13.56 10.0684 13.02 10.6684 13.02 11.4004C13.02 12.1324 13.572 12.7324 14.244 12.7324C14.928 12.7324 15.468 12.1324 15.468 11.4004C15.468 10.6684 14.928 10.0684 14.244 10.0684Z" />
<path d="M20.1 0H4.02C2.664 0 1.56 1.104 1.56 2.472V18.696C1.56 20.064 2.664 21.168 4.02 21.168H17.628L16.992 18.948L18.528 20.376L19.98 21.72L22.56 24V2.472C22.56 1.104 21.456 0 20.1 0ZM15.468 15.672C15.468 15.672 15.036 15.156 14.676 14.7C16.248 14.256 16.848 13.272 16.848 13.272C16.356 13.596 15.888 13.824 15.468 13.98C14.868 14.232 14.292 14.4 13.728 14.496C12.576 14.712 11.52 14.652 10.62 14.484C9.936 14.352 9.348 14.16 8.856 13.968C8.58 13.86 8.28 13.728 7.98 13.56C7.944 13.536 7.908 13.524 7.872 13.5C7.848 13.488 7.836 13.476 7.824 13.464C7.608 13.344 7.488 13.26 7.488 13.26C7.488 13.26 8.064 14.22 9.588 14.676C9.228 15.132 8.784 15.672 8.784 15.672C6.132 15.588 5.124 13.848 5.124 13.848C5.124 9.984 6.852 6.852 6.852 6.852C8.58 5.556 10.224 5.592 10.224 5.592L10.344 5.736C8.184 6.36 7.188 7.308 7.188 7.308C7.188 7.308 7.452 7.164 7.896 6.96C9.18 6.396 10.2 6.24 10.62 6.204C10.692 6.192 10.752 6.18 10.824 6.18C11.556 6.084 12.384 6.06 13.248 6.156C14.388 6.288 15.612 6.624 16.86 7.308C16.86 7.308 15.912 6.408 13.872 5.784L14.04 5.592C14.04 5.592 15.684 5.556 17.412 6.852C17.412 6.852 19.14 9.984 19.14 13.848C19.14 13.848 18.12 15.588 15.468 15.672Z" />
</svg>
