<svg viewBox="0 0 222 48" fill="none" xmlns="http://www.w3.org/2000/svg">
<g clip-path="url(#clip0_1828_167249)">
<path d="M5.8805 48.0116L5.87951 48.3153L6.19183 48.2998L24.4684 47.8425C26.2893 47.7971 28.1182 47.7546 29.9535 47.7119C34.3131 47.6106 38.7087 47.5084 43.1188 47.3645L44.0095 47.3364L44.3 47.3272V47.0366L44.3 46.5817L44.3 46.5772C44.2616 44.0044 44.2458 41.4275 44.23 38.849C44.2011 34.1291 44.1721 29.4039 44.0046 24.6886C44.0046 24.6884 44.0046 24.6881 44.0045 24.6878L43.3778 2.81956L43.3778 2.81941L43.3545 1.99156L43.346 1.68808L43.0426 1.70024L41.3851 1.76668L41.385 1.76669L4.47063 3.23353L4.47011 3.23355L2.98914 3.2872L2.68423 3.29824L2.70042 3.60292L2.73927 4.33381L2.73929 4.33411C2.80419 5.53256 2.85958 6.73492 2.91502 7.93855C3.02943 10.4225 3.1441 12.9118 3.34319 15.3832C3.34322 15.3837 3.34326 15.3841 3.34329 15.3845L4.13304 26.3708L4.13325 26.3735L5.8805 48.0116ZM24.8138 46.7727L6.48158 47.6847L6.55307 25.898L6.55306 25.8957L6.50645 15.0185C6.52575 12.5605 6.44958 10.1111 6.37361 7.66786C6.34836 6.85595 6.32313 6.04473 6.30144 5.2341L39.5323 4.08411L40.5275 24.8307C40.5275 24.8311 40.5275 24.8314 40.5275 24.8318C40.7187 29.5497 41.0511 34.2659 41.3831 38.9767C41.5466 41.2961 41.71 43.6143 41.8564 45.9307C38.2072 46.0912 34.546 46.2787 30.8649 46.4672C28.8543 46.5701 26.8377 46.6734 24.814 46.7727L24.8138 46.7727Z" fill="#17D96D" stroke="#17D96D" stroke-width="0.6"/>
<path d="M38 26.0024L23.5105 41H23.171L9 26.0024L23.171 11H23.5105L32.5795 20.3774L23.5105 29.75H23.171L19.8759 26.0024L25.3126 20.3774L23.5105 18.5024L16.2599 26.0121L23.5105 33.5218L34.0561 22.2742H34.3863L38 26.0024Z" fill="#17D96D"/>
<path d="M209.862 32.797C209.863 32.5761 209.811 32.3582 209.709 32.1618C209.608 31.9654 209.461 31.7964 209.28 31.6691C208.893 31.3702 208.167 31.1075 207.105 30.881C205.535 30.55 204.347 30.0809 203.541 29.4737C203.152 29.1878 202.838 28.8113 202.628 28.3768C202.417 27.9423 202.316 27.4631 202.334 26.9807C202.334 25.8817 202.799 24.9435 203.73 24.1661C204.661 23.3887 205.887 23 207.409 23C209.019 23 210.293 23.3947 211.232 24.1842C211.677 24.5281 212.032 24.9738 212.267 25.4836C212.503 25.9934 212.613 26.5524 212.587 27.1134L212.562 27.1858H209.729C209.731 26.9226 209.677 26.662 209.57 26.4214C209.463 26.1808 209.306 25.9657 209.109 25.7905C208.697 25.4018 208.131 25.2082 207.409 25.2095C206.687 25.2109 206.145 25.3703 205.783 25.688C205.607 25.8282 205.466 26.0063 205.369 26.2089C205.272 26.4116 205.222 26.6335 205.223 26.8581C205.216 27.0705 205.261 27.2814 205.353 27.4729C205.445 27.6644 205.582 27.8308 205.753 27.9578C206.105 28.2259 206.82 28.4665 207.896 28.6796C209.546 29.02 210.77 29.4992 211.568 30.117C211.959 30.4103 212.272 30.7935 212.482 31.2338C212.692 31.6741 212.793 32.1587 212.776 32.6462C212.785 33.2085 212.657 33.7646 212.401 34.2658C212.146 34.767 211.771 35.198 211.311 35.5212C210.337 36.257 209.052 36.6249 207.455 36.6249C205.749 36.6249 204.401 36.1886 203.412 35.3161C202.423 34.4435 201.954 33.4383 202.004 32.3004L202.028 32.228H204.773C204.805 32.988 205.08 33.5422 205.598 33.8907C206.162 34.2514 206.823 34.433 207.493 34.4114C208.254 34.4114 208.84 34.2666 209.254 33.9751C209.447 33.8462 209.604 33.6705 209.71 33.4644C209.816 33.2583 209.869 33.0287 209.862 32.797V32.797Z" fill="white"/>
<path fill-rule="evenodd" clip-rule="evenodd" d="M209.096 31.9067C208.767 31.6526 208.101 31.4004 207.042 31.1745C205.453 30.8393 204.217 30.3585 203.361 29.7144C202.933 29.3997 202.589 28.9855 202.357 28.5076C202.126 28.0307 202.015 27.5048 202.033 26.9754C202.034 25.7798 202.547 24.7623 203.537 23.9358C204.535 23.1029 205.835 22.7 207.408 22.7C209.064 22.7 210.412 23.1058 211.42 23.9507C211.9 24.3235 212.284 24.806 212.539 25.3577C212.795 25.9112 212.914 26.5182 212.885 27.1273L212.884 27.1689L212.778 27.4858H209.426L209.428 27.1836C209.43 26.9631 209.384 26.7448 209.295 26.5432C209.205 26.3416 209.074 26.1614 208.909 26.0145L208.902 26.0088C208.561 25.6861 208.075 25.5083 207.409 25.5095C206.724 25.5108 206.266 25.6627 205.98 25.9136L205.969 25.9227C205.829 26.0346 205.716 26.1766 205.639 26.3383C205.561 26.5001 205.522 26.6773 205.523 26.8565L205.523 26.8682C205.517 27.0321 205.551 27.1949 205.622 27.3428C205.693 27.4906 205.799 27.6191 205.931 27.7173L205.933 27.7189C206.072 27.8242 206.303 27.9389 206.648 28.055C206.989 28.1697 207.423 28.2802 207.953 28.3853L207.956 28.3857C209.623 28.7298 210.899 29.2205 211.749 29.8785C212.177 30.2007 212.521 30.6212 212.752 31.1045C212.982 31.5861 213.093 32.1158 213.075 32.649C213.084 33.2577 212.944 33.8594 212.668 34.402C212.391 34.9453 211.985 35.4127 211.487 35.7637C210.447 36.5473 209.094 36.9249 207.454 36.9249C205.697 36.9249 204.271 36.4748 203.213 35.541C202.168 34.6191 201.649 33.5307 201.703 32.2873L201.705 32.2453L201.811 31.928H205.059L205.072 32.2153C205.101 32.9018 205.342 33.3563 205.761 33.6398C206.275 33.9667 206.875 34.1311 207.483 34.1115L207.493 34.1112C208.221 34.1112 208.736 33.9719 209.081 33.7297L209.087 33.7256C209.237 33.6249 209.36 33.4878 209.443 33.3269C209.526 33.166 209.567 32.9867 209.561 32.8058L209.861 32.797C209.868 33.0287 209.816 33.2583 209.709 33.4644C209.603 33.6705 209.446 33.8462 209.253 33.9751C208.839 34.2666 208.253 34.4114 207.493 34.4114C206.822 34.433 206.162 34.2514 205.597 33.8907C205.079 33.5422 204.804 32.988 204.772 32.228H202.027L202.003 32.3004C201.953 33.4383 202.423 34.4435 203.411 35.3161C204.4 36.1886 205.748 36.6249 207.454 36.6249C209.051 36.6249 210.336 36.257 211.31 35.5211C211.771 35.198 212.145 34.767 212.4 34.2658C212.656 33.7646 212.784 33.2085 212.775 32.6462C212.792 32.1587 212.692 31.6741 212.481 31.2338C212.271 30.7934 211.958 30.4103 211.568 30.117C210.769 29.4992 209.545 29.02 207.895 28.6796C206.819 28.4664 206.105 28.2259 205.752 27.9578C205.581 27.8308 205.444 27.6644 205.352 27.4729C205.26 27.2814 205.215 27.0704 205.223 26.8581C205.221 26.6335 205.271 26.4116 205.368 26.2089C205.465 26.0063 205.606 25.8282 205.782 25.688C206.144 25.3703 206.686 25.2108 207.408 25.2095C208.13 25.2082 208.697 25.4018 209.108 25.7905C209.305 25.9657 209.462 26.1808 209.569 26.4214C209.672 26.6539 209.726 26.905 209.728 27.1592C209.728 27.1681 209.728 27.1769 209.728 27.1858H212.562L212.586 27.1134C212.612 26.5524 212.502 25.9934 212.267 25.4836C212.031 24.9738 211.676 24.5281 211.231 24.1842C210.292 23.3947 209.018 23 207.408 23C205.887 23 204.66 23.3887 203.729 24.1661C202.798 24.9435 202.333 25.8817 202.333 26.9807C202.316 27.4631 202.417 27.9423 202.627 28.3768C202.838 28.8113 203.151 29.1878 203.54 29.4737C204.347 30.0808 205.534 30.55 207.104 30.881C208.167 31.1075 208.892 31.3702 209.279 31.6691C209.46 31.7964 209.607 31.9654 209.709 32.1618C209.81 32.3582 209.862 32.5761 209.861 32.797L209.561 32.7954C209.562 32.6229 209.521 32.4527 209.442 32.2993C209.363 32.1459 209.248 32.0138 209.107 31.9144L209.096 31.9067Z" fill="white"/>
<path d="M62.7319 36.2321H52V17H62.7319V18.9863H54.2398V25.1826H62.2188V27.1548H54.2398V34.2337H62.7319V36.2321Z" fill="white"/>
<path d="M82.0363 36.2321H79.4827L68.962 20.1001H68.8554C68.9963 21.994 69.0667 23.7304 69.0667 25.3092V36.2401H67V17H69.5275L80.022 33.0837H80.1266C80.1105 32.8465 80.0709 32.0858 80.0079 30.8018C79.9448 29.5178 79.9234 28.599 79.9435 28.0455V17H82.0363V36.2321Z" fill="white"/>
<path d="M97.7319 36.2321H87V17H97.7319V18.9863H89.2398V25.1826H97.2188V27.1548H89.2398V34.2337H97.7319V36.2321Z" fill="white"/>
<path d="M104.238 28.2345V36.2321H102V17H107.28C109.64 17 111.384 17.4517 112.513 18.3551C113.641 19.2584 114.205 20.6175 114.205 22.4323C114.205 24.9789 112.915 26.6978 110.335 27.5891L115.567 36.2341H112.915L108.254 28.2365L104.238 28.2345ZM104.238 26.3145H107.311C108.89 26.3145 110.048 26.0008 110.786 25.3736C111.524 24.7463 111.893 23.8081 111.893 22.5589C111.893 21.2883 111.517 20.3722 110.766 19.8106C110.015 19.249 108.807 18.9683 107.144 18.9683H104.238V26.3145Z" fill="white"/>
<path d="M127.474 26.4316H134.01V35.7843C132.995 36.1091 131.956 36.3558 130.903 36.5221C129.691 36.6989 128.468 36.7823 127.243 36.7714C124.329 36.7714 122.06 35.9056 120.437 34.1739C118.814 32.4422 118.001 30.0149 118 26.892C118 24.8936 118.402 23.1418 119.207 21.6367C119.985 20.1597 121.197 18.9568 122.681 18.1907C124.19 17.3959 125.959 16.9992 127.987 17.0005C129.958 16.9838 131.912 17.3689 133.729 18.1324L132.859 20.1047C131.279 19.4024 129.572 19.0263 127.842 18.9989C125.497 18.9989 123.667 19.6966 122.351 21.0918C121.035 22.4871 120.377 24.4205 120.377 26.892C120.377 29.4868 121.01 31.4557 122.278 32.7987C123.546 34.1417 125.409 34.8119 127.869 34.8092C129.186 34.8116 130.498 34.657 131.779 34.3488V28.432H127.474V26.4316Z" fill="white"/>
<path d="M139 36.2321V17H141.238V36.2321H139Z" fill="white"/>
<path d="M169.036 36.2321H165.179L155.713 20.9043H155.606L155.672 21.7608C155.794 23.3919 155.856 24.8824 155.858 26.232V36.2301H153V17H156.823L166.265 32.2473H166.344C166.327 32.045 166.292 31.3078 166.239 30.0358C166.187 28.7639 166.161 27.7747 166.161 27.0684V17H169.043L169.036 36.2321Z" fill="white"/>
<path fill-rule="evenodd" clip-rule="evenodd" d="M169.336 36.5321H165.011L155.984 21.9157C156.098 23.4837 156.155 24.9225 156.157 26.2317V36.5301H152.699V16.7H156.99L165.989 31.2329C165.975 30.9087 165.958 30.5136 165.939 30.0482C165.886 28.7748 165.86 27.7809 165.86 27.0684V16.7H169.342L169.336 36.5321ZM166.314 31.7577C166.318 31.8276 166.321 31.8908 166.324 31.9473C166.33 32.0572 166.335 32.1418 166.34 32.201C166.341 32.2187 166.342 32.2342 166.343 32.2473H166.265L156.823 17H152.999V36.2301H155.857V26.232C155.855 24.8824 155.794 23.3919 155.672 21.7608L155.605 20.9043H155.712L165.178 36.2321H169.036L169.042 17H166.16V27.0684C166.16 27.7747 166.186 28.7639 166.239 30.0358C166.27 30.8057 166.295 31.3797 166.314 31.7577Z" fill="white"/>
<path d="M178.121 36.2321H175V17H185.867V19.6578H178.121V25.6691H185.376V28.343H178.121V36.2321Z" fill="white"/>
<path fill-rule="evenodd" clip-rule="evenodd" d="M178.42 36.5321H174.699V16.7H186.166V19.9578H178.42V25.3691H185.675V28.643H178.42V36.5321ZM178.12 25.6691V19.6578H185.866V17H174.999V36.2321H178.12V28.343H185.375V25.6691H178.12Z" fill="white"/>
<path d="M197.808 36.2321H194.661V19.6981H189V17H203.471V19.6981H197.808V36.2321Z" fill="white"/>
<path fill-rule="evenodd" clip-rule="evenodd" d="M198.107 36.5321H194.36V19.998H188.699V16.7H203.77V19.998H198.107V36.5321ZM194.66 19.698V36.2321H197.807V19.698H203.47V17H188.999V19.698H194.66Z" fill="white"/>
</g>
<defs>
<clipPath id="clip0_1828_167249">
<rect width="222" height="48" fill="white"/>
</clipPath>
</defs>
</svg>
