<svg width="33" height="32" viewBox="0 0 33 32" fill="none" xmlns="http://www.w3.org/2000/svg">
<path d="M0.799988 16C0.799988 7.16344 7.96343 0 16.8 0C25.6365 0 32.8 7.16344 32.8 16C32.8 24.8366 25.6365 32 16.8 32C7.96343 32 0.799988 24.8366 0.799988 16Z" fill="#0092F3"/>
<path d="M23.8 7H9.79999C8.69999 7 7.79999 7.9 7.79999 9V23C7.79999 24.1 8.69999 25 9.79999 25H23.8C24.9 25 25.8 24.1 25.8 23V9C25.8 7.9 24.9 7 23.8 7ZM22.8 23H10.8C10.25 23 9.79999 22.55 9.79999 22V10C9.79999 9.45 10.25 9 10.8 9H22.8C23.35 9 23.8 9.45 23.8 10V22C23.8 22.55 23.35 23 22.8 23ZM18.36 16.81L16.01 19.83L14.45 17.95C14.25 17.7 13.87 17.71 13.67 17.96L11.93 20.19C11.67 20.52 11.91 21 12.32 21H21.3C21.71 21 21.95 20.53 21.7 20.2L19.15 16.81C18.96 16.55 18.56 16.55 18.36 16.81Z" fill="white"/>
</svg>
