<svg width="32" height="32" viewBox="0 0 32 32" fill="none" xmlns="http://www.w3.org/2000/svg">
<path d="M0 16C0 7.16344 7.16344 0 16 0C24.8366 0 32 7.16344 32 16C32 24.8366 24.8366 32 16 32C7.16344 32 0 24.8366 0 16Z" fill="#38A643"/>
<path d="M13 20.1698L9.53001 16.6998C9.14002 16.3098 8.51001 16.3098 8.12001 16.6998C7.73001 17.0898 7.73001 17.7198 8.12001 18.1098L12.3 22.2898C12.69 22.6798 13.32 22.6798 13.71 22.2898L24.29 11.7098C24.68 11.3198 24.68 10.6898 24.29 10.2998C23.9 9.90982 23.27 9.90982 22.88 10.2998L13 20.1698Z" fill="white"/>
</svg>
