<svg width="33" height="32" viewBox="0 0 33 32" fill="none" xmlns="http://www.w3.org/2000/svg">
<path d="M0.199951 16C0.199951 7.16344 7.3634 0 16.2 0C25.0365 0 32.2 7.16344 32.2 16C32.2 24.8366 25.0365 32 16.2 32C7.3634 32 0.199951 24.8366 0.199951 16Z" fill="#950063"/>
<path d="M16.19 6C10.67 6 6.19995 10.48 6.19995 16C6.19995 21.52 10.67 26 16.19 26C21.72 26 26.2 21.52 26.2 16C26.2 10.48 21.72 6 16.19 6ZM16.2 24C11.78 24 8.19995 20.42 8.19995 16C8.19995 11.58 11.78 8 16.2 8C20.62 8 24.2 11.58 24.2 16C24.2 20.42 20.62 24 16.2 24ZM15.98 11H15.92C15.52 11 15.2 11.32 15.2 11.72V16.44C15.2 16.79 15.38 17.12 15.69 17.3L19.84 19.79C20.18 19.99 20.62 19.89 20.82 19.55C21.03 19.21 20.92 18.76 20.57 18.56L16.7 16.26V11.72C16.7 11.32 16.38 11 15.98 11Z" fill="white"/>
</svg>
