<svg width="33" height="32" viewBox="0 0 33 32" fill="none" xmlns="http://www.w3.org/2000/svg">
<path d="M0.799988 16C0.799988 7.16344 7.96343 0 16.8 0C25.6365 0 32.8 7.16344 32.8 16C32.8 24.8366 25.6365 32 16.8 32C7.96343 32 0.799988 24.8366 0.799988 16Z" fill="#C61D1D"/>
<path d="M23.1 9.70973C22.71 9.31973 22.08 9.31973 21.69 9.70973L16.8 14.5897L11.91 9.69973C11.52 9.30973 10.89 9.30973 10.5 9.69973C10.11 10.0897 10.11 10.7197 10.5 11.1097L15.39 15.9997L10.5 20.8897C10.11 21.2797 10.11 21.9097 10.5 22.2997C10.89 22.6897 11.52 22.6897 11.91 22.2997L16.8 17.4097L21.69 22.2997C22.08 22.6897 22.71 22.6897 23.1 22.2997C23.49 21.9097 23.49 21.2797 23.1 20.8897L18.21 15.9997L23.1 11.1097C23.48 10.7297 23.48 10.0897 23.1 9.70973Z" fill="white"/>
</svg>
