<svg width="32" height="33" viewBox="0 0 32 33" fill="none" xmlns="http://www.w3.org/2000/svg">
<path d="M0 16.5C0 7.66344 7.16344 0.5 16 0.5C24.8366 0.5 32 7.66344 32 16.5C32 25.3366 24.8366 32.5 16 32.5C7.16344 32.5 0 25.3366 0 16.5Z" fill="#C90E8A"/>
<path d="M21.65 12.0612L16.7 7.19125C16.31 6.81125 15.69 6.81125 15.3 7.19125L10.35 12.0612C8.9 13.4912 8 15.4613 8 17.6313C8 21.9813 11.58 25.5012 16 25.5012C20.42 25.5012 24 21.9813 24 17.6313C24 15.4613 23.1 13.4912 21.65 12.0612ZM11.75 13.4912L16 9.31125L20.25 13.4912C21.13 14.3612 22.29 16.0813 21.92 18.5013H10.07C9.7 16.0813 10.87 14.3512 11.75 13.4912Z" fill="white"/>
</svg>
