<svg width="33" height="33" viewBox="0 0 33 33" fill="none" xmlns="http://www.w3.org/2000/svg">
<path d="M0.5 16.5C0.5 7.66344 7.66344 0.5 16.5 0.5C25.3366 0.5 32.5 7.66344 32.5 16.5C32.5 25.3366 25.3366 32.5 16.5 32.5C7.66344 32.5 0.5 25.3366 0.5 16.5Z" fill="#C90E8A"/>
<path d="M15.69 5.86L8.69 8.97C7.97 9.29 7.5 10.01 7.5 10.8V15.5C7.5 21.05 11.34 26.24 16.5 27.5C21.66 26.24 25.5 21.05 25.5 15.5V10.8C25.5 10.01 25.03 9.29 24.31 8.97L17.31 5.86C16.8 5.63 16.2 5.63 15.69 5.86ZM13.79 20.79L11.2 18.2C10.81 17.81 10.81 17.18 11.2 16.79C11.59 16.4 12.22 16.4 12.61 16.79L14.5 18.67L20.38 12.79C20.77 12.4 21.4 12.4 21.79 12.79C22.18 13.18 22.18 13.81 21.79 14.2L15.2 20.79C14.82 21.18 14.18 21.18 13.79 20.79Z" fill="white"/>
</svg>
