<svg width="14" height="14" viewBox="0 0 14 14" fill="none" xmlns="http://www.w3.org/2000/svg">
<path d="M6.99984 10.3337C6.63317 10.3337 6.33317 10.0337 6.33317 9.66699L6.33317 7.00032C6.33317 6.63366 6.63317 6.33366 6.99984 6.33366C7.3665 6.33366 7.6665 6.63366 7.6665 7.00032L7.6665 9.66699C7.6665 10.0337 7.3665 10.3337 6.99984 10.3337ZM7.0065 13.667C10.6865 13.667 13.6665 10.6803 13.6665 7.00033C13.6665 3.32032 10.6865 0.333658 7.00651 0.333658C3.31984 0.333657 0.333171 3.32032 0.333171 7.00032C0.33317 10.6803 3.31984 13.667 7.0065 13.667ZM6.99984 1.66699C9.9465 1.66699 12.3332 4.05366 12.3332 7.00033C12.3332 9.94699 9.9465 12.3337 6.99984 12.3337C4.05317 12.3337 1.6665 9.94699 1.6665 7.00032C1.6665 4.05366 4.05317 1.66699 6.99984 1.66699ZM6.33317 3.66699L7.6665 3.66699L7.6665 5.00032L6.33317 5.00032L6.33317 3.66699Z" fill="#C90E8A"/>
</svg>
