<svg width="24" height="24" viewBox="0 0 24 24" fill="none" xmlns="http://www.w3.org/2000/svg">
<circle cx="12" cy="12" r="12" fill="url(#paint0_linear_496_22763)"/>
<path d="M10.6113 7.332C10.4407 7.30763 10.4326 7.29951 10.5138 7.29139C10.6681 7.26702 11.0255 7.29951 11.2773 7.35637C11.8622 7.49446 12.3901 7.85186 12.9506 8.47731L13.0968 8.64788L13.308 8.61539C14.2096 8.46918 15.1356 8.5829 15.9073 8.9403C16.1185 9.03777 16.4515 9.23272 16.4921 9.28145C16.5084 9.2977 16.5327 9.4033 16.549 9.50889C16.6058 9.89066 16.5815 10.175 16.4596 10.3943C16.3946 10.5161 16.3946 10.5486 16.4353 10.6542C16.4677 10.7354 16.5652 10.7923 16.6546 10.7923C16.8495 10.7923 17.0526 10.4836 17.1501 10.0531L17.1907 9.88254L17.2638 9.96376C17.678 10.4268 18.0029 11.0685 18.0517 11.5233L18.0679 11.6452L17.9948 11.5396C17.873 11.3527 17.7593 11.2309 17.6049 11.1253C17.3288 10.9385 17.0363 10.8816 16.2647 10.841C15.5661 10.8004 15.1681 10.7435 14.7782 10.6136C14.1122 10.3943 13.771 10.11 12.9831 9.06214C12.6338 8.59915 12.4145 8.34734 12.1952 8.13615C11.716 7.67316 11.2367 7.42948 10.6113 7.332Z" fill="#FF007A"/>
<path d="M16.6625 8.36398C16.6787 8.05532 16.7193 7.85225 16.8087 7.66543C16.8412 7.59233 16.8737 7.52734 16.8818 7.52734C16.8899 7.52734 16.8737 7.5842 16.8493 7.64918C16.7843 7.82788 16.7762 8.07969 16.8168 8.36398C16.8737 8.72951 16.898 8.77824 17.2879 9.17626C17.4666 9.36308 17.6778 9.59864 17.759 9.69611L17.8971 9.87481L17.759 9.74485C17.5885 9.58239 17.1986 9.27373 17.1092 9.23311C17.0524 9.20062 17.0442 9.20062 17.0036 9.24124C16.9711 9.27373 16.963 9.32246 16.963 9.55802C16.9549 9.92354 16.9062 10.151 16.7843 10.3865C16.7193 10.5084 16.7112 10.484 16.7681 10.3459C16.8087 10.2403 16.8168 10.1916 16.8168 9.84232C16.8168 9.13564 16.7356 8.96506 16.2401 8.68077C16.1182 8.60766 15.9071 8.50207 15.7852 8.44521C15.6553 8.38835 15.5578 8.33962 15.5659 8.33962C15.5821 8.32337 16.0614 8.46146 16.2482 8.54268C16.5325 8.6564 16.5812 8.66452 16.6137 8.6564C16.6381 8.63203 16.6543 8.56705 16.6625 8.36398Z" fill="#FF007A"/>
<path d="M10.9443 9.57419C10.6031 9.10307 10.3838 8.37203 10.4325 7.8278L10.4488 7.65723L10.53 7.67347C10.6762 7.69784 10.928 7.79531 11.0499 7.86842C11.3748 8.06336 11.521 8.33141 11.6591 8.99747C11.6997 9.19242 11.7565 9.41985 11.7809 9.49296C11.8215 9.6148 11.9759 9.8991 12.1058 10.0778C12.1952 10.2078 12.1383 10.2727 11.9352 10.2565C11.6266 10.224 11.2123 9.93971 10.9443 9.57419Z" fill="#FF007A"/>
<path d="M16.2487 13.1078C14.6404 12.4579 14.0718 11.8975 14.0718 10.9471C14.0718 10.809 14.0799 10.6953 14.0799 10.6953C14.088 10.6953 14.1449 10.744 14.218 10.8009C14.5429 11.0608 14.9084 11.1746 15.9238 11.3208C16.5167 11.4101 16.8579 11.4751 17.1665 11.5807C18.1494 11.9056 18.7586 12.5717 18.9048 13.4733C18.9454 13.7332 18.921 14.2287 18.8561 14.4886C18.7992 14.6917 18.6367 15.0653 18.5961 15.0735C18.588 15.0735 18.5718 15.0328 18.5718 14.9679C18.5555 14.6267 18.3849 14.3018 18.1006 14.05C17.7595 13.7576 17.3209 13.5383 16.2487 13.1078Z" fill="#FF007A"/>
<path d="M15.1111 13.3751C15.0949 13.2533 15.0542 13.0989 15.0299 13.034L14.9893 12.9121L15.0624 13.0015C15.168 13.1233 15.2492 13.2695 15.3223 13.4726C15.3791 13.6269 15.3791 13.6756 15.3791 13.9274C15.3791 14.1711 15.371 14.228 15.3223 14.3661C15.2411 14.5854 15.1436 14.7397 14.9811 14.9103C14.6887 15.2108 14.307 15.3733 13.7627 15.4464C13.6653 15.4545 13.3891 15.4789 13.1454 15.4951C12.5362 15.5276 12.1301 15.5926 11.7645 15.7226C11.7158 15.7388 11.6671 15.7551 11.659 15.7469C11.6427 15.7307 11.8945 15.5845 12.0976 15.487C12.3819 15.3489 12.6743 15.2758 13.316 15.1621C13.6328 15.1134 13.9577 15.0484 14.0389 15.0159C14.8431 14.7641 15.2411 14.1386 15.1111 13.3751Z" fill="#FF007A"/>
<path d="M15.8509 14.6832C15.6397 14.2202 15.591 13.7816 15.7047 13.3674C15.721 13.3267 15.7372 13.2861 15.7535 13.2861C15.7697 13.2861 15.8184 13.3105 15.8672 13.343C15.9646 13.408 16.1677 13.5217 16.6876 13.806C17.3455 14.1634 17.7192 14.4396 17.9791 14.7563C18.2065 15.0325 18.3446 15.3493 18.4096 15.7392C18.4502 15.9585 18.4258 16.4865 18.369 16.7058C18.1903 17.3962 17.7841 17.9486 17.1912 18.2654C17.1018 18.3141 17.0287 18.3466 17.0206 18.3466C17.0125 18.3466 17.045 18.2654 17.0937 18.1679C17.2887 17.7536 17.313 17.3556 17.1668 16.9089C17.0775 16.6327 16.8906 16.2997 16.517 15.7392C16.0702 15.0894 15.9646 14.9188 15.8509 14.6832Z" fill="#FF007A"/>
<path d="M9.79899 17.1686C10.4001 16.665 11.1392 16.3076 11.8216 16.1939C12.114 16.1451 12.6013 16.1614 12.8694 16.2345C13.2999 16.3482 13.6898 16.5919 13.8928 16.8924C14.0878 17.1848 14.1771 17.4366 14.2665 17.9971C14.299 18.2164 14.3396 18.4439 14.3477 18.4926C14.4127 18.785 14.5427 19.0125 14.7051 19.1343C14.9569 19.3211 15.3955 19.3292 15.826 19.1668C15.8992 19.1424 15.9641 19.118 15.9641 19.1262C15.9804 19.1424 15.7611 19.2886 15.6149 19.3617C15.4118 19.4673 15.2493 19.4998 15.03 19.4998C14.6401 19.4998 14.3071 19.2967 14.0391 18.8906C13.9822 18.8094 13.8685 18.5738 13.771 18.3545C13.4867 17.6966 13.3405 17.5016 13.0075 17.2823C12.715 17.0955 12.3414 17.0549 12.0571 17.193C11.6835 17.3717 11.586 17.8509 11.8459 18.1433C11.9515 18.2652 12.1465 18.3626 12.3089 18.387C12.6095 18.4276 12.8694 18.1921 12.8694 17.8915C12.8694 17.6966 12.7963 17.5829 12.6013 17.4935C12.3414 17.3798 12.0571 17.5098 12.0652 17.7616C12.0652 17.8672 12.114 17.9321 12.2196 17.9809C12.2845 18.0134 12.2845 18.0134 12.2358 18.0052C12.0002 17.9565 11.9434 17.6641 12.1302 17.4773C12.3576 17.2498 12.8369 17.3473 12.9993 17.6641C13.0643 17.794 13.0724 18.054 13.0156 18.2164C12.8775 18.5738 12.4876 18.7606 12.0896 18.6551C11.8215 18.5819 11.7078 18.5088 11.3829 18.1758C10.8143 17.591 10.595 17.4773 9.78275 17.3554L9.62842 17.3311L9.79899 17.1686Z" fill="#FF007A"/>
<path fill-rule="evenodd" clip-rule="evenodd" d="M5.52653 4.09928C7.41913 6.398 10.3352 9.972 10.4814 10.1669C10.6032 10.3294 10.5545 10.4837 10.3514 10.5974C10.2377 10.6624 10.0021 10.7274 9.88843 10.7274C9.75847 10.7274 9.60413 10.6624 9.49854 10.5568C9.42544 10.4837 9.10865 10.0207 8.39385 8.90792C7.84963 8.05504 7.38663 7.34836 7.37851 7.34024C7.34602 7.32399 7.34602 7.32399 8.33699 9.09474C8.96244 10.2076 9.16551 10.6056 9.16551 10.6543C9.16551 10.7599 9.13302 10.8168 9.00305 10.963C8.78374 11.2066 8.68627 11.4828 8.61316 12.0595C8.53194 12.7012 8.31262 13.1561 7.68717 13.9278C7.32165 14.3826 7.26479 14.4639 7.17544 14.6507C7.06173 14.8781 7.02924 15.0081 7.01299 15.3005C6.99674 15.6092 7.02924 15.8041 7.11858 16.0965C7.19981 16.3564 7.28916 16.527 7.50848 16.8601C7.6953 17.1525 7.80902 17.3718 7.80902 17.453C7.80902 17.518 7.82526 17.518 8.11768 17.453C8.81623 17.2906 9.39294 17.0144 9.70973 16.6732C9.90468 16.462 9.95341 16.3483 9.95341 16.0559C9.95341 15.8691 9.94529 15.8285 9.89655 15.7148C9.81533 15.5361 9.66099 15.3898 9.32796 15.1624C8.88934 14.8619 8.70251 14.6182 8.65378 14.2933C8.61316 14.0171 8.6619 13.8303 8.90558 13.3186C9.15739 12.7906 9.22237 12.5713 9.26298 12.0352C9.28735 11.694 9.32796 11.5559 9.42544 11.4503C9.53103 11.3366 9.62038 11.296 9.87218 11.2635C10.2864 11.2066 10.5545 11.1011 10.7657 10.898C10.9525 10.7274 11.0337 10.5568 11.0419 10.305L11.05 10.1182L10.9444 10.0045C10.5626 9.56586 5.27473 3.75 5.25036 3.75C5.24224 3.75 5.3722 3.90433 5.52653 4.09928ZM8.02021 15.6498C8.10956 15.4954 8.06082 15.3005 7.91461 15.203C7.77652 15.1137 7.56533 15.1543 7.56533 15.2761C7.56533 15.3086 7.58158 15.3411 7.63032 15.3574C7.70342 15.398 7.71154 15.4386 7.65468 15.5279C7.59783 15.6173 7.59782 15.6985 7.67093 15.7554C7.78465 15.8447 7.93898 15.796 8.02021 15.6498Z" fill="#FF007A"/>
<path fill-rule="evenodd" clip-rule="evenodd" d="M11.3102 11.3773C11.1152 11.4341 10.9284 11.6453 10.8715 11.8565C10.839 11.9865 10.8553 12.222 10.9122 12.2951C11.0015 12.4089 11.0827 12.4414 11.3102 12.4414C11.7569 12.4414 12.1387 12.2464 12.1793 12.0108C12.2199 11.8159 12.0493 11.5479 11.8138 11.426C11.6919 11.361 11.4401 11.3367 11.3102 11.3773ZM11.83 11.7834C11.895 11.6859 11.8706 11.5803 11.7488 11.5072C11.5295 11.3692 11.1964 11.4829 11.1964 11.6941C11.1964 11.7997 11.367 11.9134 11.5295 11.9134C11.6351 11.9134 11.7813 11.8484 11.83 11.7834Z" fill="#FF007A"/>
<defs>
<linearGradient id="paint0_linear_496_22763" x1="22.125" y1="18" x2="3" y2="2.625" gradientUnits="userSpaceOnUse">
<stop stop-color="#FFCAE2"/>
<stop offset="1" stop-color="#FDE9F2"/>
</linearGradient>
</defs>
</svg>
