<svg width="25" height="24" viewBox="0 0 25 24" fill="none" xmlns="http://www.w3.org/2000/svg">
<path d="M23.5 8V18C23.5 19.1 22.6 20 21.5 20H5.5C4.95 20 4.5 19.55 4.5 19C4.5 18.45 4.95 18 5.5 18H21.5V8C21.5 7.45 21.95 7 22.5 7C23.05 7 23.5 7.45 23.5 8ZM4.5 16C2.84 16 1.5 14.66 1.5 13V7C1.5 5.34 2.84 4 4.5 4H16.5C18.16 4 19.5 5.34 19.5 7V14C19.5 15.1 18.6 16 17.5 16H4.5ZM7.5 10C7.5 11.66 8.84 13 10.5 13C12.16 13 13.5 11.66 13.5 10C13.5 8.34 12.16 7 10.5 7C8.84 7 7.5 8.34 7.5 10Z" fill="white"/>
</svg>
