<svg width="32" height="33" viewBox="0 0 32 33" fill="none" xmlns="http://www.w3.org/2000/svg">
<path d="M0 16.5C0 7.66344 7.16344 0.5 16 0.5C24.8366 0.5 32 7.66344 32 16.5C32 25.3366 24.8366 32.5 16 32.5C7.16344 32.5 0 25.3366 0 16.5Z" fill="#C90E8A"/>
<path d="M27 12.5V22.5C27 23.6 26.1 24.5 25 24.5H9C8.45 24.5 8 24.05 8 23.5C8 22.95 8.45 22.5 9 22.5H25V12.5C25 11.95 25.45 11.5 26 11.5C26.55 11.5 27 11.95 27 12.5ZM8 20.5C6.34 20.5 5 19.16 5 17.5V11.5C5 9.84 6.34 8.5 8 8.5H20C21.66 8.5 23 9.84 23 11.5V18.5C23 19.6 22.1 20.5 21 20.5H8ZM11 14.5C11 16.16 12.34 17.5 14 17.5C15.66 17.5 17 16.16 17 14.5C17 12.84 15.66 11.5 14 11.5C12.34 11.5 11 12.84 11 14.5Z" fill="white"/>
</svg>
