<svg width="24" height="25" viewBox="0 0 24 25" fill="none" xmlns="http://www.w3.org/2000/svg">
<path d="M12 24.5C18.6274 24.5 24 19.1274 24 12.5C24 5.87258 18.6274 0.5 12 0.5C5.37258 0.5 0 5.87258 0 12.5C0 19.1274 5.37258 24.5 12 24.5Z" fill="#FF8C00"/>
<path d="M12 3.8772C8.43431 3.8772 5.52002 6.77434 5.52002 10.3572C5.52002 11.0772 5.64002 11.7801 5.86288 12.4658C6.01716 12.9286 6.53145 13.1858 7.01145 13.0315C7.47431 12.8772 7.73145 12.3629 7.57716 11.8829C7.38859 11.3515 7.30288 10.7858 7.32002 10.2201C7.38859 7.80291 9.34288 5.81434 11.76 5.69434C14.4515 5.5572 16.68 7.70005 16.68 10.3572C16.68 12.8429 14.7257 14.8829 12.2743 15.0201C12.2743 15.0201 11.3657 15.0715 10.92 15.14C10.6972 15.1743 10.5257 15.2086 10.4057 15.2258C10.3543 15.2429 10.3029 15.1915 10.32 15.14L10.4743 14.3858L11.3143 10.5115C11.4172 10.0315 11.1086 9.55148 10.6286 9.44862C10.1486 9.34577 9.66859 9.65434 9.56574 10.1343C9.56574 10.1343 7.54288 19.5629 7.52573 19.6658C7.42288 20.1458 7.73145 20.6258 8.21145 20.7286C8.69145 20.8315 9.17145 20.5229 9.27431 20.0429C9.29145 19.9401 9.56574 18.6886 9.56574 18.6886C9.77145 17.7286 10.56 17.0258 11.4857 16.9058C11.6914 16.8715 12.4972 16.8201 12.4972 16.8201C15.84 16.5629 18.48 13.7686 18.48 10.3572C18.48 6.77434 15.5657 3.8772 12 3.8772ZM12.4629 18.7915C11.88 18.6715 11.2972 19.0315 11.1772 19.6315C11.0572 20.2143 11.4172 20.7972 12.0172 20.9172C12.6 21.0372 13.1829 20.6772 13.3029 20.0772C13.4229 19.4772 13.0629 18.9115 12.4629 18.7915Z" fill="white"/>
</svg>
