<svg width="24" height="25" viewBox="0 0 24 25" fill="none" xmlns="http://www.w3.org/2000/svg">
<g clip-path="url(#clip0_948_41537)">
<path d="M12 24.5C18.6274 24.5 24 19.1274 24 12.5C24 5.87258 18.6274 0.5 12 0.5C5.37258 0.5 0 5.87258 0 12.5C0 19.1274 5.37258 24.5 12 24.5Z" fill="#EEEEEE"/>
<path d="M12 5.375C13.0355 5.375 13.875 4.53553 13.875 3.5C13.875 2.46447 13.0355 1.625 12 1.625C10.9645 1.625 10.125 2.46447 10.125 3.5C10.125 4.53553 10.9645 5.375 12 5.375Z" fill="#ABE252"/>
<path d="M12 9.875C13.0355 9.875 13.875 9.03553 13.875 8C13.875 6.96447 13.0355 6.125 12 6.125C10.9645 6.125 10.125 6.96447 10.125 8C10.125 9.03553 10.9645 9.875 12 9.875Z" fill="#4F9FDF"/>
<path d="M8.10303 7.625C9.13856 7.625 9.97803 6.78553 9.97803 5.75C9.97803 4.71447 9.13856 3.875 8.10303 3.875C7.06749 3.875 6.22803 4.71447 6.22803 5.75C6.22803 6.78553 7.06749 7.625 8.10303 7.625Z" fill="#D5643A"/>
<path d="M4.20557 9.875C5.2411 9.875 6.08057 9.03553 6.08057 8C6.08057 6.96447 5.2411 6.125 4.20557 6.125C3.17003 6.125 2.33057 6.96447 2.33057 8C2.33057 9.03553 3.17003 9.875 4.20557 9.875Z" fill="#ABE252"/>
<path d="M8.10303 12.125C9.13856 12.125 9.97803 11.2855 9.97803 10.25C9.97803 9.21447 9.13856 8.375 8.10303 8.375C7.06749 8.375 6.22803 9.21447 6.22803 10.25C6.22803 11.2855 7.06749 12.125 8.10303 12.125Z" fill="#4F9FDF"/>
<path d="M4.20557 14.375C5.2411 14.375 6.08057 13.5355 6.08057 12.5C6.08057 11.4645 5.2411 10.625 4.20557 10.625C3.17003 10.625 2.33057 11.4645 2.33057 12.5C2.33057 13.5355 3.17003 14.375 4.20557 14.375Z" fill="#E8B493"/>
<path d="M4.20557 18.875C5.2411 18.875 6.08057 18.0355 6.08057 17C6.08057 15.9645 5.2411 15.125 4.20557 15.125C3.17003 15.125 2.33057 15.9645 2.33057 17C2.33057 18.0355 3.17003 18.875 4.20557 18.875Z" fill="#D342C3"/>
<path d="M8.10303 16.625C9.13856 16.625 9.97803 15.7855 9.97803 14.75C9.97803 13.7145 9.13856 12.875 8.10303 12.875C7.06749 12.875 6.22803 13.7145 6.22803 14.75C6.22803 15.7855 7.06749 16.625 8.10303 16.625Z" fill="#D342C3"/>
<path d="M8.10303 21.125C9.13856 21.125 9.97803 20.2855 9.97803 19.25C9.97803 18.2145 9.13856 17.375 8.10303 17.375C7.06749 17.375 6.22803 18.2145 6.22803 19.25C6.22803 20.2855 7.06749 21.125 8.10303 21.125Z" fill="#E8B493"/>
<path d="M12 23.375C13.0355 23.375 13.875 22.5355 13.875 21.5C13.875 20.4645 13.0355 19.625 12 19.625C10.9645 19.625 10.125 20.4645 10.125 21.5C10.125 22.5355 10.9645 23.375 12 23.375Z" fill="#ABE252"/>
<path d="M12 18.875C13.0355 18.875 13.875 18.0355 13.875 17C13.875 15.9645 13.0355 15.125 12 15.125C10.9645 15.125 10.125 15.9645 10.125 17C10.125 18.0355 10.9645 18.875 12 18.875Z" fill="#4F9FDF"/>
<path d="M15.897 21.125C16.9325 21.125 17.772 20.2855 17.772 19.25C17.772 18.2145 16.9325 17.375 15.897 17.375C14.8614 17.375 14.022 18.2145 14.022 19.25C14.022 20.2855 14.8614 21.125 15.897 21.125Z" fill="#D5643A"/>
<path d="M19.7944 18.875C20.83 18.875 21.6694 18.0355 21.6694 17C21.6694 15.9645 20.83 15.125 19.7944 15.125C18.7589 15.125 17.9194 15.9645 17.9194 17C17.9194 18.0355 18.7589 18.875 19.7944 18.875Z" fill="#ABE252"/>
<path d="M15.897 16.625C16.9325 16.625 17.772 15.7855 17.772 14.75C17.772 13.7145 16.9325 12.875 15.897 12.875C14.8614 12.875 14.022 13.7145 14.022 14.75C14.022 15.7855 14.8614 16.625 15.897 16.625Z" fill="#4F9FDF"/>
<path d="M19.7944 14.375C20.83 14.375 21.6694 13.5355 21.6694 12.5C21.6694 11.4645 20.83 10.625 19.7944 10.625C18.7589 10.625 17.9194 11.4645 17.9194 12.5C17.9194 13.5355 18.7589 14.375 19.7944 14.375Z" fill="#E8B493"/>
<path d="M19.7944 9.875C20.83 9.875 21.6694 9.03553 21.6694 8C21.6694 6.96447 20.83 6.125 19.7944 6.125C18.7589 6.125 17.9194 6.96447 17.9194 8C17.9194 9.03553 18.7589 9.875 19.7944 9.875Z" fill="#D342C3"/>
<path d="M15.897 12.125C16.9325 12.125 17.772 11.2855 17.772 10.25C17.772 9.21447 16.9325 8.375 15.897 8.375C14.8614 8.375 14.022 9.21447 14.022 10.25C14.022 11.2855 14.8614 12.125 15.897 12.125Z" fill="#D342C3"/>
<path d="M15.897 7.625C16.9325 7.625 17.772 6.78553 17.772 5.75C17.772 4.71447 16.9325 3.875 15.897 3.875C14.8614 3.875 14.022 4.71447 14.022 5.75C14.022 6.78553 14.8614 7.625 15.897 7.625Z" fill="#E8B493"/>
<path d="M12 14.375C13.0355 14.375 13.875 13.5355 13.875 12.5C13.875 11.4645 13.0355 10.625 12 10.625C10.9645 10.625 10.125 11.4645 10.125 12.5C10.125 13.5355 10.9645 14.375 12 14.375Z" fill="#3F1A0D"/>
</g>
<defs>
<clipPath id="clip0_948_41537">
<rect width="24" height="24" fill="white" transform="translate(0 0.5)"/>
</clipPath>
</defs>
</svg>
