<svg width="24" height="24" viewBox="0 0 24 24" fill="none" xmlns="http://www.w3.org/2000/svg">
<path d="M12 3C16.971 3 21 7.02979 21 12C21 16.971 16.971 21 12 21C7.02979 21 3 16.9706 3 12C3 7.02979 7.02979 3 12 3Z" fill="#F5AC37"/>
<path d="M12.3287 12.6313H15.7486C15.8215 12.6313 15.8559 12.6313 15.8612 12.5357C15.8891 12.1878 15.8891 11.8379 15.8612 11.4895C15.8612 11.4219 15.8275 11.394 15.7542 11.394H8.94815C8.86391 11.394 8.84123 11.4219 8.84123 11.5009V12.5021C8.84123 12.6313 8.84123 12.6313 8.97609 12.6313H12.3287V12.6313ZM15.4792 10.2239C15.489 10.1984 15.489 10.1704 15.4792 10.1453C15.4221 10.021 15.3545 9.90234 15.2759 9.79096C15.1577 9.60061 15.0183 9.42524 14.8596 9.26769C14.7847 9.17252 14.698 9.08706 14.6008 9.01457C14.114 8.60025 13.5352 8.30702 12.9131 8.1596C12.5993 8.08913 12.2785 8.05552 11.9569 8.05835H8.9364C8.85216 8.05835 8.84082 8.09197 8.84082 8.16527V10.1619C8.84082 10.2462 8.84082 10.2689 8.94774 10.2689H15.4387C15.4387 10.2689 15.495 10.2575 15.5064 10.2239H15.4788H15.4792ZM15.4792 13.8013C15.3837 13.7908 15.2873 13.7908 15.1917 13.8013H8.95382C8.86958 13.8013 8.84123 13.8013 8.84123 13.9139V15.866C8.84123 15.9559 8.84123 15.9786 8.95382 15.9786H11.8338C11.9715 15.9891 12.1092 15.9794 12.2441 15.9507C12.662 15.9207 13.0731 15.83 13.4652 15.6805C13.6077 15.6311 13.7454 15.5667 13.8754 15.4894H13.9147C14.5899 15.1382 15.1382 14.5866 15.4841 13.9094C15.4841 13.9094 15.5234 13.8244 15.4792 13.8021V13.8013ZM7.71086 16.9907V16.9571V15.6465V15.2022V13.8803C7.71086 13.807 7.71086 13.796 7.62095 13.796H6.40027C6.33263 13.796 6.30469 13.796 6.30469 13.7061V12.6373H7.60961C7.68251 12.6373 7.71086 12.6373 7.71086 12.5417V11.4843C7.71086 11.4166 7.71086 11.4 7.62095 11.4H6.40027C6.33263 11.4 6.30469 11.4 6.30469 11.3101V10.3203C6.30469 10.2583 6.30469 10.2417 6.3946 10.2417H7.60394C7.68818 10.2417 7.71086 10.2417 7.71086 10.1348V7.10295C7.71086 7.01304 7.71086 6.99036 7.82345 6.99036H12.042C12.3482 7.00251 12.6523 7.03612 12.9532 7.09161C13.5733 7.20622 14.1691 7.42776 14.7138 7.74407C15.0751 7.9567 15.4076 8.21347 15.7036 8.50912C15.9264 8.74038 16.1273 8.99067 16.3055 9.25716C16.4824 9.5273 16.6295 9.81607 16.7449 10.1178C16.7591 10.1964 16.8344 10.2494 16.913 10.2361H17.9198C18.049 10.2361 18.049 10.2361 18.0547 10.36V11.2826C18.0547 11.3725 18.021 11.3952 17.9307 11.3952H17.1543C17.0758 11.3952 17.0531 11.3952 17.0588 11.4964C17.0895 11.8391 17.0895 12.1829 17.0588 12.5255C17.0588 12.6211 17.0588 12.6325 17.1661 12.6325H18.0543C18.0935 12.6831 18.0543 12.7337 18.0543 12.7847C18.0599 12.85 18.0599 12.916 18.0543 12.9812V13.662C18.0543 13.7576 18.0263 13.7859 17.9417 13.7859H16.8785C16.8044 13.7717 16.7323 13.8191 16.7153 13.8928C16.4622 14.551 16.0572 15.1411 15.5339 15.6141C15.3428 15.7862 15.1419 15.9482 14.9321 16.0977C14.7069 16.2273 14.4878 16.3622 14.2569 16.4691C13.8321 16.6602 13.3866 16.8012 12.9293 16.8907C12.4952 16.9684 12.0549 17.0037 11.6131 16.9976H7.70924V16.9919L7.71086 16.9907Z" fill="#FEFEFD"/>
<circle cx="12" cy="12" r="11.25" stroke="url(#paint0_linear)" stroke-width="1.5"/>
<defs>
<linearGradient id="paint0_linear" x1="19.5" y1="2" x2="5.5" y2="24" gradientUnits="userSpaceOnUse">
<stop stop-color="#B3529F"/>
<stop offset="1" stop-color="#2FB9C6"/>
</linearGradient>
</defs>
</svg>
