<svg width="24" height="24" viewBox="0 0 24 24" fill="none" xmlns="http://www.w3.org/2000/svg">
<path d="M12 21C13.78 21 15.5201 20.4722 17.0001 19.4832C18.4802 18.4943 19.6337 17.0887 20.3149 15.4442C20.9961 13.7996 21.1743 11.99 20.8271 10.2442C20.4798 8.49836 19.6226 6.89472 18.364 5.63604C17.1053 4.37737 15.5016 3.5202 13.7558 3.17294C12.01 2.82567 10.2004 3.0039 8.55585 3.68509C6.91131 4.36628 5.50571 5.51983 4.51677 6.99987C3.52784 8.47991 3 10.22 3 12C3.00001 14.3869 3.94823 16.6761 5.63605 18.364C7.32388 20.0518 9.61305 21 12 21Z" fill="#26A17B"/>
<path d="M13.0178 12.8069V12.8055C12.9556 12.8098 12.6345 12.8285 11.9197 12.8285C11.348 12.8285 10.9472 12.8126 10.8055 12.8055V12.8069C8.60752 12.71 6.96826 12.3279 6.96826 11.8692C6.96826 11.412 8.60907 11.0285 10.8055 10.9316V12.4264C10.9488 12.4365 11.3611 12.4611 11.9298 12.4611C12.6127 12.4611 12.9542 12.4321 13.0178 12.4264V10.9331C15.2114 11.0315 16.8465 11.4134 16.8465 11.8707C16.8465 12.3279 15.21 12.71 13.0178 12.8083V12.8069ZM13.0178 10.7782V9.44131H16.0782V7.40253H7.74662V9.44131H10.8069V10.7782C8.31966 10.8926 6.4502 11.3846 6.4502 11.9749C6.4502 12.5653 8.32107 13.0572 10.8069 13.1729V17.4588H13.0193V13.1729C15.5022 13.0586 17.3689 12.5667 17.3689 11.9764C17.3689 11.3874 15.5022 10.894 13.0193 10.7798" fill="white"/>
<circle cx="12" cy="12" r="11.25" stroke="url(#paint0_linear)" stroke-width="1.5"/>
<defs>
<linearGradient id="paint0_linear" x1="19.5" y1="2" x2="5.5" y2="24" gradientUnits="userSpaceOnUse">
<stop stop-color="#B3529F"/>
<stop offset="1" stop-color="#2FB9C6"/>
</linearGradient>
</defs>
</svg>
