<svg width="24" height="24" viewBox="0 0 24 24" fill="none" xmlns="http://www.w3.org/2000/svg">
<path d="M12 21C16.9875 21 21 16.9875 21 12C21 7.01247 16.9875 3 12 3C7.01247 3 3 7.01247 3 12C3 16.9875 7.01247 21 12 21Z" fill="#2775CA"/>
<path d="M14.4751 13.4249C14.4751 12.1124 13.6876 11.6624 12.1126 11.475C10.9877 11.3249 10.7627 11.025 10.7627 10.4999C10.7627 9.97484 11.1377 9.63742 11.8876 9.63742C12.5626 9.63742 12.9377 9.86242 13.1251 10.4249C13.1627 10.5374 13.2752 10.6124 13.3877 10.6124H13.9876C14.1376 10.6124 14.2501 10.4999 14.2501 10.35V10.3124C14.1001 9.48739 13.4251 8.84992 12.5626 8.77495V7.87495C12.5626 7.72492 12.4501 7.61242 12.2627 7.57489H11.7002C11.5502 7.57489 11.4377 7.68739 11.4001 7.87495V8.73742C10.2751 8.88745 9.56269 9.63742 9.56269 10.575C9.56269 11.8125 10.3127 12.2999 11.8876 12.4875C12.9377 12.6749 13.2752 12.8999 13.2752 13.5C13.2752 14.1 12.7501 14.5125 12.0377 14.5125C11.0626 14.5125 10.7251 14.0999 10.6126 13.5374C10.5752 13.3875 10.4627 13.3124 10.3502 13.3124H9.71263C9.56269 13.3124 9.4502 13.4249 9.4502 13.5749V13.6125C9.60013 14.5499 10.2002 15.2249 11.4377 15.4125V16.3125C11.4377 16.4624 11.5502 16.5749 11.7376 16.6124H12.3001C12.4501 16.6124 12.5626 16.4999 12.6002 16.3125V15.4125C13.7252 15.2249 14.4751 14.4374 14.4751 13.4249V13.4249Z" fill="white"/>
<path d="M10.0877 17.3625C7.16274 16.3126 5.66271 13.0501 6.75027 10.1625C7.31277 8.5875 8.55027 7.38753 10.0877 6.82503C10.2378 6.75006 10.3127 6.63756 10.3127 6.45V5.92503C10.3127 5.775 10.2378 5.6625 10.0877 5.62506C10.0502 5.62506 9.97524 5.62506 9.93771 5.6625C6.37524 6.7875 4.42521 10.5751 5.55021 14.1375C6.22521 16.2375 7.83774 17.85 9.93771 18.525C10.0877 18.6 10.2378 18.525 10.2752 18.375C10.3127 18.3376 10.3127 18.3 10.3127 18.2251V17.7C10.3127 17.5875 10.2002 17.4376 10.0877 17.3625ZM14.0628 5.6625C13.9127 5.58753 13.7627 5.6625 13.7253 5.81253C13.6877 5.85006 13.6877 5.8875 13.6877 5.96256V6.48753C13.6877 6.63756 13.8002 6.7875 13.9127 6.86256C16.8377 7.9125 18.3378 11.175 17.2502 14.0626C16.6877 15.6376 15.4502 16.8375 13.9127 17.4C13.7627 17.475 13.6877 17.5875 13.6877 17.7751V18.3C13.6877 18.4501 13.7627 18.5626 13.9127 18.6C13.9503 18.6 14.0252 18.6 14.0628 18.5626C17.6252 17.4376 19.5753 13.65 18.4503 10.0875C17.7753 7.95003 16.1252 6.3375 14.0628 5.6625V5.6625Z" fill="white"/>
<circle cx="12" cy="12" r="11.25" stroke="url(#paint0_linear)" stroke-width="1.5"/>
<defs>
<linearGradient id="paint0_linear" x1="19.5" y1="2" x2="5.5" y2="24" gradientUnits="userSpaceOnUse">
<stop stop-color="#B3529F"/>
<stop offset="1" stop-color="#2FB9C6"/>
</linearGradient>
</defs>
</svg>
