<svg width="24" height="24" viewBox="0 0 24 24" fill="none" xmlns="http://www.w3.org/2000/svg">
<circle cx="12" cy="12" r="12" fill="white"/>
<g clip-path="url(#clip0)">
<path d="M12.0671 5C9.27329 5.01122 7.01122 7.27243 7 10.0652C7 10.6245 7.09031 11.18 7.26719 11.7105C7.39919 12.0716 7.79089 12.266 8.15855 12.1544C8.51392 12.0181 8.70256 11.6298 8.58927 11.2665C8.43911 10.8531 8.37231 10.4145 8.39208 9.97541C8.453 7.95833 10.1379 6.37233 12.1558 6.43322C14.1736 6.49412 15.7602 8.17841 15.6993 10.1955C15.6421 12.0838 14.1544 13.6175 12.2675 13.7323C12.2675 13.7323 11.5562 13.7756 11.2024 13.8189C11.072 13.8376 10.9427 13.8632 10.815 13.8958C10.7968 13.9145 10.7674 13.9145 10.7487 13.8963L10.7482 13.8958C10.7354 13.8793 10.7354 13.8557 10.7482 13.8392L10.8583 13.2388L11.5263 10.2356C11.6064 9.86056 11.3676 9.49144 10.9924 9.41131C10.6173 9.33119 10.248 9.56997 10.1679 9.94497C10.1679 9.94497 8.57912 17.2959 8.57912 17.3627C8.48827 17.7201 8.70416 18.0833 9.06167 18.1741C9.06541 18.1752 9.06968 18.1762 9.07342 18.1768H9.1103C9.46727 18.2692 9.83172 18.0545 9.92364 17.6976C9.92524 17.6917 9.92684 17.6859 9.92791 17.6795C9.92684 17.6682 9.92684 17.657 9.92791 17.6463C9.94768 17.5598 10.1481 16.5817 10.1481 16.5817C10.2998 15.8435 10.8952 15.2778 11.6401 15.1634C11.7935 15.1399 12.4379 15.0967 12.4379 15.0967C15.221 14.8194 17.2522 12.3392 16.9743 9.55715C16.721 7.01976 14.6182 5.06624 12.0671 5Z" fill="#1E1E1E"/>
<path d="M12.3744 16.6789C11.9175 16.5838 11.4708 16.8771 11.3756 17.3333C11.3746 17.3376 11.374 17.3419 11.373 17.3461C11.2741 17.7997 11.5616 18.2478 12.0158 18.3467C12.0164 18.3467 12.0169 18.3467 12.0174 18.3472H12.041C12.4856 18.4546 12.9329 18.1811 13.0397 17.7372C13.0408 17.7339 13.0413 17.7302 13.0424 17.727V17.6805C13.121 17.2222 12.8281 16.7826 12.3744 16.6789Z" fill="#E6007A"/>
</g>
<defs>
<clipPath id="clip0">
<rect width="10" height="13.3707" fill="white" transform="translate(7 5)"/>
</clipPath>
</defs>
</svg>
