<svg width="24" height="24" viewBox="0 0 24 24" fill="none" xmlns="http://www.w3.org/2000/svg">
<g clip-path="url(#clip0)">
<path d="M6.16683 2.91675L21.6668 13.5001L17.8335 19.1667L2.3335 8.50008L6.16683 2.91675Z" fill="url(#paint0_linear)"/>
<path d="M21.6665 13.5001C20.3332 15.4168 15.8332 14.6668 11.5832 11.6667C7.24986 8.75008 4.91653 4.83341 6.16653 2.91675C7.49986 1.00008 11.9999 1.75008 16.2499 4.75008C20.5832 7.58342 22.9165 11.5834 21.6665 13.5001Z" fill="url(#paint1_linear)"/>
<path d="M17.8331 19.0834C16.4998 21.0001 11.9998 20.2501 7.74978 17.2501C3.49978 14.2501 1.08312 10.4167 2.41645 8.41675C3.74978 6.50008 8.24978 7.25008 12.4998 10.2501C16.7498 13.2501 19.0831 17.1667 17.8331 19.0834Z" fill="url(#paint2_linear)"/>
<path d="M21.6665 13.5L17.8332 19.1667C16.4998 21.0834 11.9998 20.25 7.74984 17.3334C6.9165 16.75 6.1665 16.1667 5.4165 15.5C5.99984 15.4167 6.74984 15.0834 7.49984 14.25C8.83317 12.8334 9.49984 12.5 10.0832 12.5834C10.6665 12.5834 11.3332 13.1667 12.4165 14.5834C13.4998 16 14.9998 16.4167 15.9165 15.6667C15.9998 15.5834 16.0832 15.5834 16.1665 15.5C16.9165 14.9167 17.1665 14.6667 18.5832 12C18.9165 11.3334 20.0832 10.25 21.6665 10.75C22.0832 11.8334 22.0832 12.75 21.6665 13.5Z" fill="#0E0F23"/>
<path fill-rule="evenodd" clip-rule="evenodd" d="M21.0833 13.1667C19.9166 14.8334 15.8333 14 11.9166 11.25C7.91665 8.50002 5.58332 5.00002 6.74998 3.33336C7.91665 1.66669 12 2.50002 15.9166 5.25002C19.8333 8.00002 22.1666 11.5 21.0833 13.1667ZM17.4166 10.6667C16.8333 11.5 14.8333 11.0834 12.8333 9.75002C10.9166 8.41669 9.74998 6.66669 10.3333 5.83336C10.9166 5.00002 12.9166 5.41669 14.9166 6.75002C16.8333 8.08336 18 9.83336 17.4166 10.6667Z" fill="white"/>
<path d="M5.83333 4.83343C5.83333 4.75009 5.75 4.66676 5.66667 4.75009C5.58333 4.83343 5.5 4.83343 5.5 4.91676C5.58333 5.16676 5.66667 5.33343 5.66667 5.50009C5.66667 5.58343 5.75 5.66676 5.83333 5.58343C5.91667 5.58343 6 5.50009 5.91667 5.41676C5.91667 5.25009 5.91667 5.08343 5.83333 4.83343Z" fill="white"/>
<path d="M6.25 6.16668C6.25 6.08335 6.16667 6.00001 6.08333 6.08335C6 6.16668 6 6.16668 6 6.25001C6.91667 8.33335 8.83333 10.5833 11.3333 12.25C11.4167 12.3333 11.5 12.25 11.5833 12.25C11.6667 12.1667 11.5833 12.0833 11.5833 12C9 10.3333 7.16667 8.16668 6.25 6.16668Z" fill="white"/>
<path d="M16.3332 14.3333C16.2498 14.3333 16.1665 14.3333 16.1665 14.4166C16.1665 14.5 16.1665 14.5833 16.2498 14.5833C16.4998 14.6666 16.8332 14.75 17.0832 14.8333C17.1665 14.8333 17.2498 14.8333 17.2498 14.75C17.2498 14.6666 17.2498 14.5833 17.1665 14.5833C16.9165 14.5 16.5832 14.4166 16.3332 14.3333Z" fill="white"/>
<path d="M17.8332 14.6667C17.7498 14.6667 17.6665 14.7501 17.6665 14.8334C17.6665 14.9167 17.7498 15.0001 17.8332 15.0001C18.4998 15.0834 19.2498 15.1667 19.8332 15.0834C19.9165 15.0834 19.9998 15.0001 19.9998 14.9167C19.9998 14.8334 19.9165 14.7501 19.8332 14.7501C19.1665 14.8334 18.4998 14.7501 17.8332 14.6667Z" fill="white"/>
</g>
<path d="M7.99984 22.8958C10.7037 22.8958 12.8957 20.7039 12.8957 18C12.8957 15.2961 10.7037 13.1041 7.99984 13.1041C5.29594 13.1041 3.104 15.2961 3.104 18C3.104 20.7039 5.29594 22.8958 7.99984 22.8958Z" fill="#F4F4F4"/>
<path d="M5.86182 18.0635L8.02401 19.3187L8.38467 16.6542L5.86182 18.0635Z" fill="#393939"/>
<path d="M8.02396 14.5396L6.99951 18.151L10.1859 18.0634L8.02396 14.5396Z" fill="#343434"/>
<path d="M8.02401 14.5396L5.86182 18.0634L8.02401 17.0974V14.5396Z" fill="#8C8C8C"/>
<path d="M8.02402 21.4591L8.07718 19.7502L5.86182 18.4661L8.02402 21.4591Z" fill="#8C8C8C"/>
<path d="M8.02393 19.7211V21.4591L10.1873 18.4661L8.02393 19.7211Z" fill="#3C3C3B"/>
<path d="M8.02393 19.3187L10.1858 18.0634L8.02393 17.098V19.3187Z" fill="#141414"/>
<path d="M16.2666 23C17.2555 23 18.2222 22.7068 19.0445 22.1573C19.8667 21.6079 20.5076 20.827 20.886 19.9134C21.2644 18.9998 21.3635 17.9945 21.1705 17.0246C20.9776 16.0546 20.5014 15.1637 19.8021 14.4645C19.1029 13.7652 18.212 13.289 17.2421 13.0961C16.2721 12.9031 15.2668 13.0022 14.3532 13.3806C13.4396 13.759 12.6587 14.3999 12.1093 15.2222C11.5598 16.0444 11.2666 17.0111 11.2666 18C11.2666 19.3261 11.7934 20.5978 12.7311 21.5355C13.6688 22.4732 14.9405 23 16.2666 23Z" fill="#26A17B"/>
<path d="M16.8323 18.4483V18.4475C16.7977 18.4499 16.6193 18.4603 16.2222 18.4603C15.9046 18.4603 15.682 18.4515 15.6032 18.4475V18.4483C14.3821 18.3945 13.4714 18.1822 13.4714 17.9273C13.4714 17.6734 14.383 17.4603 15.6032 17.4065V18.2369C15.6828 18.2425 15.9119 18.2562 16.2278 18.2562C16.6072 18.2562 16.797 18.2401 16.8323 18.2369V17.4073C18.0509 17.462 18.9593 17.6741 18.9593 17.9282C18.9593 18.1822 18.0502 18.3945 16.8323 18.4491V18.4483ZM16.8323 17.3213V16.5785H18.5325V15.4459H13.9038V16.5785H15.604V17.3213C14.2222 17.3848 13.1836 17.6581 13.1836 17.9861C13.1836 18.3141 14.223 18.5873 15.604 18.6516V21.0327H16.8331V18.6516C18.2125 18.5881 19.2495 18.3148 19.2495 17.9869C19.2495 17.6597 18.2125 17.3855 16.8331 17.3221" fill="white"/>
<defs>
<linearGradient id="paint0_linear" x1="9.20366" y1="1.412" x2="12.2775" y2="11.9672" gradientUnits="userSpaceOnUse">
<stop stop-color="#03B8FF"/>
<stop offset="1" stop-color="#FA52A0"/>
</linearGradient>
<linearGradient id="paint1_linear" x1="11.7347" y1="0.674747" x2="14.8086" y2="11.23" gradientUnits="userSpaceOnUse">
<stop stop-color="#03B8FF"/>
<stop offset="1" stop-color="#FA52A0"/>
</linearGradient>
<linearGradient id="paint2_linear" x1="6.67978" y1="2.14683" x2="9.7537" y2="12.7021" gradientUnits="userSpaceOnUse">
<stop stop-color="#03B8FF"/>
<stop offset="1" stop-color="#FA52A0"/>
</linearGradient>
<clipPath id="clip0">
<rect width="20" height="20" fill="white" transform="translate(2 1)"/>
</clipPath>
</defs>
</svg>
