<svg width="24" height="24" viewBox="0 0 24 24" fill="none" xmlns="http://www.w3.org/2000/svg">
<g clip-path="url(#clip0)">
<path d="M6.16683 2.91675L21.6668 13.5001L17.8335 19.1667L2.3335 8.50008L6.16683 2.91675Z" fill="url(#paint0_linear)"/>
<path d="M21.6665 13.5001C20.3332 15.4168 15.8332 14.6668 11.5832 11.6667C7.24986 8.75008 4.91653 4.83341 6.16653 2.91675C7.49986 1.00008 11.9999 1.75008 16.2499 4.75008C20.5832 7.58342 22.9165 11.5834 21.6665 13.5001Z" fill="url(#paint1_linear)"/>
<path d="M17.8331 19.0834C16.4998 21.0001 11.9998 20.2501 7.74978 17.2501C3.49978 14.2501 1.08312 10.4167 2.41645 8.41675C3.74978 6.50008 8.24978 7.25008 12.4998 10.2501C16.7498 13.2501 19.0831 17.1667 17.8331 19.0834Z" fill="url(#paint2_linear)"/>
<path d="M21.6665 13.5L17.8332 19.1667C16.4998 21.0834 11.9998 20.25 7.74984 17.3334C6.9165 16.75 6.1665 16.1667 5.4165 15.5C5.99984 15.4167 6.74984 15.0834 7.49984 14.25C8.83317 12.8334 9.49984 12.5 10.0832 12.5834C10.6665 12.5834 11.3332 13.1667 12.4165 14.5834C13.4998 16 14.9998 16.4167 15.9165 15.6667C15.9998 15.5834 16.0832 15.5834 16.1665 15.5C16.9165 14.9167 17.1665 14.6667 18.5832 12C18.9165 11.3334 20.0832 10.25 21.6665 10.75C22.0832 11.8334 22.0832 12.75 21.6665 13.5Z" fill="#0E0F23"/>
<path fill-rule="evenodd" clip-rule="evenodd" d="M21.0833 13.1667C19.9166 14.8334 15.8333 14 11.9166 11.25C7.91665 8.50002 5.58332 5.00002 6.74998 3.33336C7.91665 1.66669 12 2.50002 15.9166 5.25002C19.8333 8.00002 22.1666 11.5 21.0833 13.1667ZM17.4166 10.6667C16.8333 11.5 14.8333 11.0834 12.8333 9.75002C10.9166 8.41669 9.74998 6.66669 10.3333 5.83336C10.9166 5.00002 12.9166 5.41669 14.9166 6.75002C16.8333 8.08336 18 9.83336 17.4166 10.6667Z" fill="white"/>
<path d="M5.83333 4.83343C5.83333 4.75009 5.75 4.66676 5.66667 4.75009C5.58333 4.83343 5.5 4.83343 5.5 4.91676C5.58333 5.16676 5.66667 5.33343 5.66667 5.50009C5.66667 5.58343 5.75 5.66676 5.83333 5.58343C5.91667 5.58343 6 5.50009 5.91667 5.41676C5.91667 5.25009 5.91667 5.08343 5.83333 4.83343Z" fill="white"/>
<path d="M6.25 6.16668C6.25 6.08335 6.16667 6.00001 6.08333 6.08335C6 6.16668 6 6.16668 6 6.25001C6.91667 8.33335 8.83333 10.5833 11.3333 12.25C11.4167 12.3333 11.5 12.25 11.5833 12.25C11.6667 12.1667 11.5833 12.0833 11.5833 12C9 10.3333 7.16667 8.16668 6.25 6.16668Z" fill="white"/>
<path d="M16.3332 14.3333C16.2498 14.3333 16.1665 14.3333 16.1665 14.4166C16.1665 14.5 16.1665 14.5833 16.2498 14.5833C16.4998 14.6666 16.8332 14.75 17.0832 14.8333C17.1665 14.8333 17.2498 14.8333 17.2498 14.75C17.2498 14.6666 17.2498 14.5833 17.1665 14.5833C16.9165 14.5 16.5832 14.4166 16.3332 14.3333Z" fill="white"/>
<path d="M17.8332 14.6667C17.7498 14.6667 17.6665 14.7501 17.6665 14.8334C17.6665 14.9167 17.7498 15.0001 17.8332 15.0001C18.4998 15.0834 19.2498 15.1667 19.8332 15.0834C19.9165 15.0834 19.9998 15.0001 19.9998 14.9167C19.9998 14.8334 19.9165 14.7501 19.8332 14.7501C19.1665 14.8334 18.4998 14.7501 17.8332 14.6667Z" fill="white"/>
</g>
<path d="M7.99984 22.8958C10.7037 22.8958 12.8957 20.7039 12.8957 18C12.8957 15.2961 10.7037 13.1041 7.99984 13.1041C5.29594 13.1041 3.104 15.2961 3.104 18C3.104 20.7039 5.29594 22.8958 7.99984 22.8958Z" fill="#F4F4F4"/>
<path d="M5.86182 18.0635L8.02401 19.3187L8.38467 16.6542L5.86182 18.0635Z" fill="#393939"/>
<path d="M8.02396 14.5396L6.99951 18.151L10.1859 18.0634L8.02396 14.5396Z" fill="#343434"/>
<path d="M8.02401 14.5396L5.86182 18.0634L8.02401 17.0974V14.5396Z" fill="#8C8C8C"/>
<path d="M8.02402 21.4591L8.07718 19.7502L5.86182 18.4661L8.02402 21.4591Z" fill="#8C8C8C"/>
<path d="M8.02393 19.7211V21.4591L10.1873 18.4661L8.02393 19.7211Z" fill="#3C3C3B"/>
<path d="M8.02393 19.3187L10.1858 18.0634L8.02393 17.098V19.3187Z" fill="#141414"/>
<g clip-path="url(#clip1)">
<path d="M16.2666 23C19.0375 23 21.2666 20.7708 21.2666 18C21.2666 15.2292 19.0375 13 16.2666 13C13.4958 13 11.2666 15.2292 11.2666 18C11.2666 20.7708 13.4958 23 16.2666 23Z" fill="#2775CA"/>
<path d="M17.6412 18.7916C17.6412 18.0625 17.2037 17.8125 16.3287 17.7083C15.7038 17.625 15.5788 17.4583 15.5788 17.1666C15.5788 16.8749 15.7871 16.6875 16.2038 16.6875C16.5787 16.6875 16.7871 16.8125 16.8912 17.125C16.9121 17.1875 16.9746 17.2291 17.0371 17.2291H17.3704C17.4537 17.2291 17.5162 17.1666 17.5162 17.0833V17.0625C17.4329 16.6041 17.0579 16.25 16.5787 16.2083V15.7083C16.5787 15.625 16.5162 15.5625 16.4121 15.5416H16.0996C16.0163 15.5416 15.9538 15.6041 15.9329 15.7083V16.1875C15.3079 16.2708 14.9121 16.6875 14.9121 17.2083C14.9121 17.8958 15.3288 18.1666 16.2038 18.2708C16.7871 18.375 16.9746 18.5 16.9746 18.8333C16.9746 19.1667 16.6829 19.3958 16.2871 19.3958C15.7454 19.3958 15.5579 19.1666 15.4954 18.8541C15.4746 18.7708 15.4121 18.7291 15.3496 18.7291H14.9954C14.9121 18.7291 14.8496 18.7916 14.8496 18.875V18.8958C14.9329 19.4166 15.2663 19.7916 15.9538 19.8958V20.3958C15.9538 20.4791 16.0163 20.5416 16.1204 20.5625H16.4329C16.5162 20.5625 16.5787 20.5 16.5996 20.3958V19.8958C17.2246 19.7916 17.6412 19.3541 17.6412 18.7916V18.7916Z" fill="white"/>
<path d="M15.2045 20.9792C13.5795 20.3959 12.7462 18.5834 13.3504 16.9792C13.6629 16.1042 14.3504 15.4375 15.2045 15.125C15.2879 15.0834 15.3295 15.0209 15.3295 14.9167V14.625C15.3295 14.5417 15.2879 14.4792 15.2045 14.4584C15.1837 14.4584 15.142 14.4584 15.1212 14.4792C13.142 15.1042 12.0587 17.2084 12.6837 19.1875C13.0587 20.3542 13.9545 21.25 15.1212 21.625C15.2045 21.6667 15.2879 21.625 15.3087 21.5417C15.3295 21.5209 15.3295 21.5 15.3295 21.4584V21.1667C15.3295 21.1042 15.267 21.0209 15.2045 20.9792ZM17.4129 14.4792C17.3295 14.4375 17.2462 14.4792 17.2254 14.5625C17.2045 14.5834 17.2045 14.6042 17.2045 14.6459V14.9375C17.2045 15.0209 17.267 15.1042 17.3295 15.1459C18.9545 15.7292 19.7879 17.5417 19.1837 19.1459C18.8712 20.0209 18.1837 20.6875 17.3295 21C17.2462 21.0417 17.2045 21.1042 17.2045 21.2084V21.5C17.2045 21.5834 17.2462 21.6459 17.3295 21.6667C17.3504 21.6667 17.392 21.6667 17.4129 21.6459C19.392 21.0209 20.4754 18.9167 19.8504 16.9375C19.4754 15.75 18.5587 14.8542 17.4129 14.4792V14.4792Z" fill="white"/>
</g>
<defs>
<linearGradient id="paint0_linear" x1="9.20366" y1="1.412" x2="12.2775" y2="11.9672" gradientUnits="userSpaceOnUse">
<stop stop-color="#03B8FF"/>
<stop offset="1" stop-color="#FA52A0"/>
</linearGradient>
<linearGradient id="paint1_linear" x1="11.7347" y1="0.674747" x2="14.8086" y2="11.23" gradientUnits="userSpaceOnUse">
<stop stop-color="#03B8FF"/>
<stop offset="1" stop-color="#FA52A0"/>
</linearGradient>
<linearGradient id="paint2_linear" x1="6.67978" y1="2.14683" x2="9.7537" y2="12.7021" gradientUnits="userSpaceOnUse">
<stop stop-color="#03B8FF"/>
<stop offset="1" stop-color="#FA52A0"/>
</linearGradient>
<clipPath id="clip0">
<rect width="20" height="20" fill="white" transform="translate(2 1)"/>
</clipPath>
<clipPath id="clip1">
<rect width="10" height="10" fill="white" transform="translate(11.2666 13)"/>
</clipPath>
</defs>
</svg>
