<svg width="24" height="24" viewBox="0 0 24 24" fill="none" xmlns="http://www.w3.org/2000/svg">
    <path
        d="M12.0542 23.75C14.3542 23.75 16.6025 23.0609 18.5148 21.7698C20.4272 20.4787 21.9177 18.6436 22.7979 16.4965C23.678 14.3495 23.9083 11.987 23.4596 9.7077C23.0109 7.42843 21.9034 5.33478 20.277 3.6915C18.6507 2.04823 16.5787 0.929156 14.3229 0.475778C12.0671 0.0224024 9.72892 0.25509 7.60403 1.14442C5.47913 2.03375 3.66295 3.53978 2.38515 5.47205C1.10735 7.40433 0.425331 9.67608 0.425331 12C0.425331 15.1163 1.65051 18.105 3.83135 20.3085C6.01218 22.5121 8.97002 23.75 12.0542 23.75Z"
        fill="#22A079" />
    <path
        d="M13.4498 12.9787V12.9768C13.3715 12.9823 12.9671 13.0063 12.067 13.0063C11.3473 13.0063 10.8427 12.986 10.6641 12.9768V12.9787C7.89654 12.8553 5.83227 12.3693 5.83227 11.7857C5.83227 11.204 7.89837 10.7162 10.6641 10.5928V12.4945C10.8445 12.5074 11.3637 12.5387 12.0797 12.5387C12.9397 12.5387 13.3697 12.5019 13.4498 12.4945V10.5947C16.212 10.7198 18.2708 11.2058 18.2708 11.7876C18.2708 12.3693 16.2101 12.8553 13.4498 12.9805V12.9787ZM13.4498 10.3977V8.69666H17.3033V6.10278H6.81249V8.69666H10.6659V10.3977C7.53397 10.5431 5.18002 11.169 5.18002 11.9201C5.18002 12.6712 7.5358 13.2971 10.6659 13.4444V18.8973H13.4517V13.4444C16.5782 13.299 18.9285 12.6731 18.9285 11.922C18.9285 11.1727 16.5782 10.5449 13.4517 10.3995"
        fill="#FEFEFE" />
</svg>