<svg xmlns="http://www.w3.org/2000/svg" width="24" height="24" viewBox="0 0 24 24" fill="none">
<rect width="24" height="24" rx="12" fill="white"/>
<path fill-rule="evenodd" clip-rule="evenodd" d="M9.20002 10.6898C8.28037 10.7823 7.59402 11.013 6.9453 11.4476C6.14421 11.9843 6.08552 12.0279 6.03755 12.1219C5.92429 12.344 6.08053 12.6018 6.32839 12.6018C6.45302 12.6018 6.42311 12.6194 7.22328 12.073C7.50744 11.879 7.69265 11.7744 7.90278 11.6891C7.99339 11.6523 8.08605 11.6138 8.1087 11.6036C8.59495 11.3836 9.70697 11.2929 10.393 11.4172C11.2386 11.5705 11.3916 11.6467 12.8137 12.6232C12.91 12.6893 13.0444 12.7815 13.1123 12.8282C14.5066 13.7847 16.6017 13.7837 18.023 12.8259C18.1718 12.7257 18.3146 12.6322 18.3403 12.6184C18.6175 12.4688 18.6872 12.195 18.4948 12.0114C18.3278 11.8522 18.2448 11.8714 17.7801 12.177C17.5793 12.3091 17.3549 12.4438 17.2815 12.4764C17.2082 12.5089 17.1231 12.5485 17.0926 12.5644C17.0107 12.6069 16.6849 12.7116 16.4921 12.7573C15.8489 12.9101 15.1666 12.9014 14.5537 12.7325C13.9633 12.5698 13.7329 12.443 12.5975 11.655C12.0939 11.3055 11.9259 11.2112 11.4033 10.9853C10.929 10.7803 9.80257 10.6292 9.20002 10.6898ZM9.77477 12.2266C9.58342 12.3558 9.59866 12.0069 9.60566 16.1007C9.61261 20.1401 9.59748 19.7889 9.77049 19.9259C9.95561 20.0725 10.1981 19.994 10.2959 19.7559L10.3415 19.6446L10.3422 16.1021C10.3429 12.3055 10.345 12.3881 10.2441 12.2765C10.1258 12.1458 9.92601 12.1246 9.77477 12.2266ZM8.34858 12.2553C8.26601 12.2973 8.18879 12.408 8.14849 12.5419C8.10205 12.6962 8.10494 16.0481 8.15163 16.2088C8.23667 16.5014 8.54327 16.6124 8.73549 16.4202C8.86382 16.2918 8.86171 16.3284 8.85558 14.3304L8.84997 12.5201L8.80189 12.4224C8.715 12.246 8.51295 12.1715 8.34858 12.2553ZM11.2774 12.7961C11.0805 12.9162 11.0809 12.913 11.0881 14.435L11.0944 15.7529L11.1451 15.8414C11.2998 16.1117 11.7156 16.0503 11.7861 15.7467C11.813 15.6308 11.8094 13.1347 11.7822 13.0366C11.7184 12.8067 11.461 12.6841 11.2774 12.7961ZM6.88353 13.0185C6.82984 13.0381 6.75751 13.1143 6.71164 13.1996C6.64817 13.3175 6.62949 15.8183 6.69064 16.0102C6.79051 16.3237 7.20449 16.3554 7.33535 16.0596C7.39053 15.9349 7.40263 13.3775 7.34868 13.2484C7.26781 13.0548 7.06221 12.9532 6.88353 13.0185ZM12.7714 13.6644C12.7085 13.6922 12.6594 13.734 12.6221 13.7914L12.5667 13.877V14.3022C12.5667 14.6379 12.5731 14.7402 12.5974 14.7889C12.7117 15.0181 13.0394 15.041 13.205 14.8314C13.2578 14.7645 13.2946 14.0963 13.2566 13.8933C13.2181 13.6878 12.9766 13.5739 12.7714 13.6644ZM17.1556 14.0427C16.9926 14.1535 16.9937 14.147 16.9941 14.9973C16.9944 15.7425 16.9951 15.754 17.0407 15.8346C17.1744 16.0707 17.5053 16.073 17.6586 15.839C17.7188 15.747 17.7114 14.2661 17.6502 14.1572C17.5591 13.9949 17.3106 13.9375 17.1556 14.0427ZM14.2615 14.2126C14.1974 14.2251 14.0764 14.3666 14.0507 14.4593C14.0196 14.5713 14.0204 18.1522 14.0516 18.265C14.1337 18.5621 14.5474 18.6097 14.6947 18.339L14.7493 18.2388V16.364C14.7493 15.0894 14.7423 14.4707 14.7274 14.4312C14.6602 14.2534 14.482 14.1698 14.2615 14.2126ZM15.748 14.3525C15.702 14.3686 15.6315 14.4194 15.5884 14.4675L15.5112 14.5536V16.2157V17.878L15.558 17.9474C15.7127 18.1769 16.0309 18.1704 16.1643 17.9349L16.2106 17.8531L16.2109 16.2203C16.2113 14.4309 16.2179 14.5271 16.0878 14.4177C15.9816 14.3283 15.8751 14.3079 15.748 14.3525Z" fill="#59CBC7"/>
<path fill-rule="evenodd" clip-rule="evenodd" d="M11.666 4.02607C11.4791 4.04681 11.2799 4.07404 11.2232 4.0866C11.1666 4.09916 11.0369 4.12763 10.935 4.14987C10.5295 4.23831 10.0251 4.41431 9.68458 4.58619C9.33566 4.76235 9.21706 4.82716 9.10576 4.90247C9.03972 4.94721 8.9589 4.99873 8.92621 5.01696C8.89352 5.03518 8.83175 5.07657 8.78892 5.109C8.74614 5.14138 8.70187 5.17479 8.69055 5.18323C8.67922 5.19162 8.61899 5.24155 8.5567 5.29416C8.49442 5.34677 8.40315 5.42358 8.35383 5.46481C8.18709 5.60432 7.90865 5.87705 7.80513 6.00229C7.74851 6.07076 7.64195 6.19883 7.56833 6.28686C7.49472 6.37489 7.41055 6.48371 7.38126 6.5287C7.35197 6.57369 7.27656 6.68926 7.21365 6.78552C6.91673 7.24002 6.59438 8.0075 6.46558 8.56665C6.33086 9.15133 6.27007 10.0571 6.33426 10.5228C6.34517 10.6021 6.35974 10.72 6.36654 10.7848C6.38167 10.9287 6.41086 10.9602 6.47922 10.9064C6.55613 10.846 6.92682 10.5949 6.93917 10.5949C6.94525 10.5949 6.99405 10.5615 7.04754 10.5206C7.10107 10.4797 7.16403 10.439 7.1874 10.4301C7.21077 10.4212 7.27131 10.3827 7.32191 10.3445C7.37251 10.3063 7.4556 10.2574 7.50656 10.2357C7.55752 10.2141 7.6369 10.18 7.68303 10.16C8.7951 9.67743 10.3774 9.66302 11.4189 10.126C11.4698 10.1486 11.5532 10.1854 11.6042 10.2077C11.7581 10.2751 11.9004 10.3502 11.9439 10.3871C11.9666 10.4063 12.0204 10.44 12.0636 10.4621C12.1068 10.4841 12.185 10.5376 12.2376 10.581C12.2901 10.6243 12.3752 10.6837 12.4268 10.7131C12.4783 10.7424 12.539 10.7823 12.5617 10.8018C12.5843 10.8212 12.6342 10.8544 12.6724 10.8756C12.8003 10.9461 12.8214 10.96 12.877 11.01C12.9074 11.0373 13.0389 11.13 13.1691 11.2159C13.6156 11.5106 13.8052 11.6244 13.8504 11.6245C13.8664 11.6246 13.9073 11.6392 13.9413 11.6569C14.704 12.0549 16.0806 12.0665 17.1329 11.6837C17.3198 11.6157 17.3565 11.5998 17.407 11.5652C17.4374 11.5443 17.5318 11.4868 17.6168 11.4373C17.8434 11.3055 18.0694 11.134 18.0908 11.0777C18.1564 10.905 18.1991 10.471 18.2001 9.96684C18.2012 9.40022 18.1878 9.27004 18.0674 8.6799C18.016 8.42771 17.8593 7.8942 17.8125 7.81188C17.7954 7.78182 17.7815 7.74682 17.7815 7.7341C17.7815 7.7113 17.6576 7.43198 17.6119 7.35178C17.599 7.32913 17.5621 7.25649 17.5298 7.19039C17.4976 7.1243 17.4543 7.04554 17.4336 7.01537C17.4129 6.9852 17.3554 6.8929 17.3056 6.81028C17.1094 6.48407 16.9745 6.30385 16.6735 5.96605C16.4551 5.72076 16.0208 5.32299 15.8194 5.18364C15.7068 5.10576 15.3704 4.88456 15.2582 4.8146C15.1472 4.74547 14.7028 4.52375 14.5796 4.47608C14.523 4.4542 14.4488 4.42358 14.4149 4.40808C14.34 4.3739 14.1292 4.29694 14.0442 4.27275C13.9816 4.25494 13.8795 4.22868 13.5088 4.1352C13.0282 4.01392 12.2115 3.96553 11.666 4.02607Z" fill="#F3B406"/>
</svg>