<svg width="24" height="24" viewBox="0 0 24 24" fill="none" xmlns="http://www.w3.org/2000/svg">
<mask id="mask0_170_10889" style="mask-type:alpha" maskUnits="userSpaceOnUse" x="0" y="0" width="24" height="24">
<path d="M24 0H0V24H24V0Z" fill="#C4C4C4"/>
</mask>
<g mask="url(#mask0_170_10889)">
<path d="M12.0004 22.9083C18.0253 22.9083 22.9095 18.0241 22.9095 11.9992C22.9095 5.97427 18.0253 1.09009 12.0004 1.09009C5.97546 1.09009 1.09131 5.97427 1.09131 11.9992C1.09131 18.0241 5.97546 22.9083 12.0004 22.9083Z" fill="#ECF3FF"/>
<path d="M9.05502 5.34551L5.23682 3.81825V4.36371L8.50953 7.30915L8.29138 10.3637L7.30954 14.5092L6.00046 16.3637L6.32774 18.9819L7.9641 19.2001L9.27318 18.9819L10.5823 19.2001L12.8732 17.7819L13.3095 15.491L16.0368 12.8728L17.2368 13.7455L18.4368 15.491V18.9819L20.0732 18.5455L21.7095 14.9455L22.1459 10.3637L16.255 1.74552L15.2732 1.52734L9.05502 5.34551Z" fill="white"/>
<path d="M3.27321 11.6502C3.31684 11.2793 3.33866 10.9084 3.44775 10.5593C3.75321 9.11929 4.3423 7.74473 5.21504 6.63201C5.36776 6.43565 5.49868 6.26109 5.6732 6.08653L4.6914 5.17017C4.51684 5.43201 4.3423 5.69381 4.18957 5.95565C3.3823 7.35201 2.94593 8.92288 2.83684 10.472C2.79321 10.8647 2.81502 11.2574 2.81502 11.6284C2.81502 12.0211 2.85866 12.392 2.92412 12.7847C3.03321 13.5484 3.22957 14.2902 3.49139 14.9884C3.31684 14.2465 3.22957 13.5047 3.20775 12.7411C3.20775 12.392 3.20775 12.0211 3.27321 11.6502Z" fill="#94A6C4"/>
<path d="M7.74562 4.58196C7.20019 4.32015 6.43655 3.97106 5.89111 3.70924C6.39291 3.22923 7.30927 2.72742 8.0729 2.40015C7.52747 2.83651 7.52747 3.75287 7.74562 4.58196Z" fill="#94A6C4"/>
<path d="M5.54195 8.29004C5.23652 9.05368 5.04016 9.86096 4.97472 10.6464C4.95288 10.8428 4.93108 11.0392 4.95287 11.2355C4.95287 11.4319 4.95288 11.6282 4.97472 11.8246L4.99652 12.13C4.99652 12.2173 5.01836 12.3264 5.04016 12.4137L5.12744 13.0028L5.14923 12.4137C5.14923 12.3264 5.14923 12.2173 5.17108 12.13L5.21472 11.8464C5.23652 11.65 5.28016 11.4537 5.30195 11.2792C5.3238 11.0828 5.38923 10.9082 5.43287 10.7337C5.62923 9.99188 5.95651 9.31552 6.34923 8.68276C6.61108 8.26824 6.91651 7.89732 7.24379 7.54825L6.39287 6.74097C6.02195 7.24276 5.76016 7.74461 5.54195 8.29004Z" fill="#94A6C4"/>
<path d="M18.1749 4.55935C17.0186 4.14481 16.5604 4.27572 16.5604 4.27572C16.5604 4.27572 15.8404 6.21752 13.0913 6.34845C13.1131 6.37024 15.5786 7.81024 18.1749 4.55935Z" fill="#94A6C4"/>
<path d="M18.9607 8.42114C18.8516 10.8211 16.997 11.7157 15.557 11.5411C14.7716 11.4321 13.6152 11.803 13.6152 11.803L12.1534 14.3339L11.6734 14.5084L12.5025 12.9811C12.5025 12.9811 10.5388 13.7011 10.3861 13.7666C10.2334 13.8321 9.62247 14.7266 9.12068 15.6648C9.0116 15.0102 8.59704 14.5521 8.59704 14.5302C8.59704 14.6393 8.81524 16.603 8.57524 17.1484C8.33524 17.7157 7.26611 18.0866 7.26611 18.0866L8.83704 18.6757L8.94611 18.7193L10.1243 17.6066L10.5607 15.9484L11.1061 15.5557C11.1061 15.5557 12.4588 15.403 12.2625 16.6248C12.1752 17.2139 11.5207 17.1702 10.7788 17.6284C10.3425 17.8902 9.77524 18.3048 9.4916 18.5884L10.277 19.1557C10.277 19.1557 11.2152 19.003 12.5461 17.9557C13.8988 16.8648 13.2225 15.6866 13.2225 15.6866L15.4261 13.0466L16.8661 13.1557C16.8661 13.1557 19.3534 13.7884 20.1607 16.1448C21.7752 11.6284 19.1789 8.63935 18.9607 8.42114Z" fill="#94A6C4"/>
<path d="M21.4913 6.54549C21.884 6.72005 22.1895 6.9811 22.4731 7.2211C20.5095 0.41383 14.1386 1.17747 14.0077 1.2211C14.1604 0.981102 14.7277 0.610194 15.2513 0.41383C15.2513 0.41383 12.5458 -0.54617 10.0804 1.15565C10.124 0.762922 10.604 0.17383 10.604 0.17383C7.2004 1.63641 6.9822 3.38187 7.63676 4.42837C7.09132 4.16656 6.54584 3.92656 6.0004 3.66474C4.3204 2.85747 2.8804 2.1811 2.79313 2.15929C2.6404 2.11565 2.57494 2.1811 2.57494 2.1811C2.57494 2.1811 2.50949 2.24656 2.6404 2.37747C4.62585 4.36292 5.89132 5.56369 8.00768 7.50474C7.6586 8.29018 7.61496 8.68294 7.78948 9.09746C8.02948 9.66474 8.00768 9.94838 7.9204 10.3193C7.81132 10.6902 6.9386 13.9847 6.78584 14.3557C6.63312 14.7484 5.47676 16.0575 5.45496 16.4938C5.43312 16.9302 5.7822 18.8502 6.2622 19.1338C6.63312 19.3302 7.52768 19.7447 8.1822 19.832C8.4004 19.8757 8.6186 19.8538 8.72768 19.7666C9.16404 19.4829 9.27312 19.4393 9.55676 19.4611L9.6222 19.4829C9.73132 19.5047 9.8622 19.5484 10.0368 19.5702C10.4077 19.6138 10.8877 19.6138 11.2804 19.352C11.8477 18.9157 12.8077 18.3702 13.135 18.0865C13.5277 17.6938 13.7895 17.1484 13.7895 16.5375C13.7895 15.992 14.1604 15.5557 14.575 15.1193C14.9677 14.7265 15.9495 13.7665 16.3422 13.352C17.3458 13.7011 17.7168 15.1411 17.7168 15.9266C17.7168 18.1084 15.9495 21.2938 11.8913 21.5338C11.7386 21.5338 11.5858 21.5557 11.4113 21.5557C6.13132 21.5557 1.81131 16.8865 1.81131 11.4102C1.81131 7.09018 4.40696 4.16484 4.42878 4.14302C2.33424 6.12849 1.09131 8.9011 1.09131 11.9993C1.09131 18.0211 5.9786 22.9091 12.0004 22.9091C18.0222 22.9091 22.9095 18.0211 22.9095 11.9993C22.9095 10.0357 22.4077 8.13825 21.4913 6.54549ZM6.58948 5.14838C6.28404 4.88654 5.9786 4.62474 5.67312 4.36292C6.08768 4.5811 6.5022 4.7993 6.87312 4.99566C8.00768 5.58474 8.94584 6.10838 9.1204 6.2393C9.1204 6.2393 9.1422 6.2611 9.16404 6.28294C9.27312 6.41382 9.3822 6.63202 9.18584 6.91566C9.07676 7.06838 8.94584 7.02474 8.74948 6.89382C8.57496 6.78474 7.63676 6.04294 6.58948 5.14838ZM12.9386 16.4938C12.9386 16.8647 12.764 17.192 12.5458 17.432C12.4368 17.5411 12.0004 17.8247 11.695 18.0211C11.3895 18.2393 11.0622 18.4357 10.8004 18.632C10.6913 18.6975 10.5168 18.7411 10.2331 18.6975L9.55676 18.6102C9.97132 18.1957 11.1058 17.3011 11.4768 17.1266C11.9131 16.9084 12.175 16.6684 11.9786 16.1665C11.804 15.6429 11.1277 15.6647 11.1277 15.6647C11.1277 15.6647 11.5422 15.5557 11.8695 15.5993C11.455 15.4247 10.8877 15.4684 10.604 15.6647C10.2986 15.8829 10.2113 16.7775 10.015 17.3229C9.8186 17.8902 9.3822 18.1302 8.72768 18.5884C8.35676 18.8284 8.11676 18.8938 7.9422 18.872C7.57132 18.7629 7.13496 18.5665 6.82948 18.4138C6.65496 18.0865 6.43676 17.0611 6.41496 16.6465C6.5022 16.4284 6.85132 15.992 7.02584 15.7302C7.37496 15.2502 7.57132 14.9665 7.6586 14.7047C7.81132 14.3338 8.44404 11.9993 8.68404 11.0175C8.92404 11.432 9.25132 12.1302 9.0986 12.5229C9.88404 11.6938 9.53496 10.712 9.3604 10.3193C9.20768 9.92654 9.03312 9.16294 9.3822 8.4211C9.70948 7.6793 10.844 5.67202 10.844 5.67202C10.844 5.67202 11.0404 6.19566 11.455 6.15202C11.8477 6.10838 15.6222 1.87565 15.6222 1.87565C15.6222 1.87565 16.2113 3.83929 15.1204 5.0393C14.0295 6.2393 13.1131 6.37018 13.1131 6.37018C13.1131 6.37018 14.335 6.76294 15.6004 6.10838C15.9277 7.28654 16.2113 8.50838 16.2113 8.6611C16.124 8.81382 14.9022 10.8647 14.7931 10.9957C14.7495 11.0393 14.4004 11.0829 14.1822 11.0829C13.7895 11.1484 13.5495 11.1702 13.4404 11.2357C13.2658 11.3447 12.2622 13.2429 11.7822 14.1593C11.3458 14.2247 10.9095 14.3775 10.5604 14.792C10.735 14.7047 11.2368 14.7047 11.6077 14.7047C11.935 14.7265 12.8295 15.3811 12.9386 16.4065C12.9386 16.472 12.9386 16.472 12.9386 16.4938ZM10.3858 17.4102C10.6258 17.1484 10.6695 16.6465 10.7131 16.4938C10.7568 16.3411 10.844 16.0575 11.0404 16.0357C11.2368 16.0138 11.6513 16.1447 11.6077 16.472C11.564 16.7775 11.2368 16.7993 10.975 16.952C10.8004 17.0611 10.4295 17.3665 10.3858 17.4102ZM19.8768 17.6938C19.615 14.9011 17.695 13.592 16.844 13.1557C17.8258 13.0465 20.3568 12.2829 18.9604 8.4211C19.004 8.59566 19.3968 10.5157 18.284 11.5193C17.1495 12.5447 15.4913 12.1084 15.295 12.1084C15.1204 12.0865 14.2913 12.8938 13.1568 14.4429C13.0477 14.3775 12.5895 14.2029 12.0222 14.2247C12.5895 13.1557 13.4404 11.6284 13.5713 11.4975C13.615 11.4538 13.9858 11.4102 14.204 11.3884C14.6404 11.3447 14.8586 11.3011 14.9458 11.2138C14.9895 11.1484 15.295 10.6684 15.6004 10.1447C15.7968 10.1665 16.3204 10.2102 16.3858 10.1884C16.4295 10.1447 17.0186 9.09746 17.0404 8.96654C17.0622 8.8793 16.6477 7.24294 16.3858 6.19566C21.775 8.74838 22.6258 14.3775 19.8768 17.6938Z" fill="#1C324F"/>
<path d="M14.6842 4.71192C15.2951 4.16646 15.2078 3.22827 15.2078 3.22827L13.3751 5.25735C13.3533 5.25735 13.9206 5.36643 14.6842 4.71192Z" fill="#1C324F"/>
<path d="M7.83295 16.2538L8.13843 15.3811C8.13843 15.3811 7.20023 16.5811 7.11295 16.7557C7.02567 16.952 7.06931 17.3229 7.3748 17.3447C7.68023 17.3666 8.09479 16.9738 8.13843 16.6684C8.20387 16.2538 7.83295 16.2538 7.83295 16.2538Z" fill="#1C324F"/>
<path d="M10.7131 10.9739C11.3677 10.9084 12.5459 10.3848 13.0477 9.97022C13.5495 9.53386 13.4622 8.57386 12.6768 8.29022C12.9386 7.85386 13.375 6.9375 13.375 6.9375C13.375 6.9375 10.5604 10.2321 10.3422 10.2757C10.1241 10.3193 10.0368 9.49022 10.0368 9.49022C9.3822 11.083 10.495 11.4757 10.7131 10.9739Z" fill="#1C324F"/>
<path d="M10.9531 10.5594L12.415 8.70483C12.415 8.70483 13.0477 9.14119 12.6331 9.64299C12.1095 10.2321 10.9531 10.5594 10.9531 10.5594Z" fill="#FFD925"/>
<path d="M14.8367 2.29028L13.8331 3.38119C13.0258 3.62119 12.2404 4.05756 11.4985 4.77755C11.4985 4.36301 12.6985 2.5521 14.8367 2.29028Z" fill="#D82423"/>
<path d="M16.1022 3.22838C16.1241 2.94474 16.1022 2.61747 16.0586 2.31201C17.3677 2.48656 18.9168 3.2502 20.6841 4.97382C19.2222 4.16656 17.6732 3.42474 16.1022 3.22838Z" fill="#D82423"/>
<path d="M16.4951 4.64663C16.4951 4.64663 21.3606 6.78481 22.2551 12.7848C22.386 4.97389 16.8442 4.58118 16.4951 4.64663Z" fill="#D82423"/>
<path d="M9.40375 1.19922C9.33827 1.37377 6.58919 4.31922 10.0147 5.4756C8.13827 3.79558 9.38191 1.22104 9.40375 1.19922Z" fill="#D82423"/>
<path d="M10.8662 5.01739C10.8662 5.01739 11.1498 1.67921 13.1571 0.784668C13.0044 0.828304 8.9244 2.07194 10.8662 5.01739Z" fill="#D82423"/>
</g>
</svg>
